M48
;GenerationSoftware,Autodesk,EAGLE,9.6.2*%
;CreationDate,2023-01-18T09:27:28Z*%
FMAT,2
ICI,OFF
METRIC,TZ,000.000
T2C0.350
T1C1.016
%
G90
M71
T1
X1497Y5697
X4037Y5697
X1497Y8237
X4037Y8237
X1497Y10777
X4037Y10777
X1497Y13317
X4037Y13317
X1497Y15857
X4037Y15857
T2
X32000Y20400
X12300Y18300
X17700Y12500
X18600Y11500
X10200Y7300
X29900Y2800
X13400Y13700
X10200Y11300
X30300Y19300
X10200Y10300
X29000Y18700
X10200Y9300
X26900Y18200
X10200Y8300
X23800Y16700
X26100Y2800
X10200Y6100
M30