G04 EAGLE Gerber RS-274X export*
G75*
%MOMM*%
%FSLAX34Y34*%
%LPD*%
%INTop Copper*%
%IPPOS*%
%AMOC8*
5,1,8,0,0,1.08239X$1,22.5*%
G01*
%ADD10R,2.150000X1.800000*%
%ADD11P,1.640903X8X112.500000*%
%ADD12R,1.422400X0.711200*%
%ADD13R,0.711200X1.422400*%
%ADD14R,1.300000X1.500000*%
%ADD15R,2.400000X0.760000*%
%ADD16R,1.150000X1.050000*%
%ADD17C,0.254000*%
%ADD18P,0.703554X8X22.500000*%
%ADD19C,0.152400*%

G36*
X390020Y2004D02*
X390020Y2004D01*
X390039Y2002D01*
X390141Y2024D01*
X390243Y2040D01*
X390260Y2050D01*
X390280Y2054D01*
X390369Y2107D01*
X390460Y2156D01*
X390474Y2170D01*
X390491Y2180D01*
X390558Y2259D01*
X390630Y2334D01*
X390638Y2352D01*
X390651Y2367D01*
X390690Y2463D01*
X390733Y2557D01*
X390735Y2577D01*
X390743Y2595D01*
X390761Y2762D01*
X390761Y227238D01*
X390758Y227258D01*
X390760Y227277D01*
X390738Y227379D01*
X390722Y227481D01*
X390712Y227498D01*
X390708Y227518D01*
X390655Y227607D01*
X390606Y227698D01*
X390592Y227712D01*
X390582Y227729D01*
X390503Y227796D01*
X390428Y227868D01*
X390410Y227876D01*
X390395Y227889D01*
X390299Y227928D01*
X390205Y227971D01*
X390185Y227973D01*
X390167Y227981D01*
X390000Y227999D01*
X320700Y227999D01*
X320629Y227988D01*
X320557Y227986D01*
X320508Y227968D01*
X320457Y227960D01*
X320394Y227926D01*
X320326Y227901D01*
X320285Y227869D01*
X320240Y227844D01*
X320190Y227793D01*
X320134Y227748D01*
X320106Y227704D01*
X320070Y227666D01*
X320040Y227601D01*
X320001Y227541D01*
X319988Y227490D01*
X319967Y227443D01*
X319959Y227372D01*
X319941Y227302D01*
X319945Y227250D01*
X319939Y227199D01*
X319955Y227128D01*
X319960Y227057D01*
X319981Y227009D01*
X319992Y226958D01*
X320029Y226897D01*
X320057Y226831D01*
X320101Y226775D01*
X320118Y226747D01*
X320136Y226732D01*
X320161Y226700D01*
X320689Y226172D01*
X321024Y225593D01*
X321197Y224946D01*
X321197Y219023D01*
X315862Y219023D01*
X315842Y219020D01*
X315823Y219022D01*
X315721Y219000D01*
X315619Y218983D01*
X315602Y218974D01*
X315582Y218970D01*
X315493Y218917D01*
X315402Y218868D01*
X315388Y218854D01*
X315371Y218844D01*
X315304Y218765D01*
X315233Y218690D01*
X315224Y218672D01*
X315211Y218657D01*
X315172Y218561D01*
X315129Y218467D01*
X315127Y218447D01*
X315119Y218429D01*
X315101Y218262D01*
X315101Y217499D01*
X315099Y217499D01*
X315099Y218262D01*
X315096Y218282D01*
X315098Y218301D01*
X315076Y218403D01*
X315059Y218505D01*
X315050Y218522D01*
X315046Y218542D01*
X314993Y218631D01*
X314944Y218722D01*
X314930Y218736D01*
X314920Y218753D01*
X314841Y218820D01*
X314766Y218891D01*
X314748Y218900D01*
X314733Y218913D01*
X314637Y218952D01*
X314543Y218995D01*
X314523Y218997D01*
X314505Y219005D01*
X314338Y219023D01*
X309003Y219023D01*
X309003Y224946D01*
X309176Y225593D01*
X309511Y226172D01*
X310039Y226700D01*
X310081Y226758D01*
X310130Y226810D01*
X310152Y226857D01*
X310182Y226899D01*
X310203Y226968D01*
X310233Y227033D01*
X310239Y227085D01*
X310255Y227135D01*
X310253Y227206D01*
X310261Y227277D01*
X310249Y227328D01*
X310248Y227380D01*
X310224Y227448D01*
X310208Y227518D01*
X310182Y227563D01*
X310164Y227611D01*
X310119Y227667D01*
X310082Y227729D01*
X310043Y227763D01*
X310010Y227803D01*
X309950Y227842D01*
X309895Y227889D01*
X309847Y227908D01*
X309803Y227936D01*
X309734Y227954D01*
X309667Y227981D01*
X309596Y227989D01*
X309565Y227997D01*
X309541Y227995D01*
X309500Y227999D01*
X76000Y227999D01*
X75978Y227996D01*
X75940Y227997D01*
X73244Y227785D01*
X73238Y227783D01*
X73232Y227784D01*
X73068Y227750D01*
X67939Y226083D01*
X67907Y226067D01*
X67872Y226058D01*
X67727Y225975D01*
X63363Y222805D01*
X63338Y222780D01*
X63308Y222761D01*
X63195Y222637D01*
X60025Y218273D01*
X60009Y218241D01*
X59986Y218214D01*
X59917Y218061D01*
X58250Y212932D01*
X58249Y212926D01*
X58247Y212921D01*
X58215Y212756D01*
X58003Y210060D01*
X58005Y210038D01*
X58001Y210000D01*
X58001Y174171D01*
X56829Y172999D01*
X2762Y172999D01*
X2742Y172996D01*
X2723Y172998D01*
X2621Y172976D01*
X2519Y172960D01*
X2502Y172950D01*
X2482Y172946D01*
X2393Y172893D01*
X2302Y172844D01*
X2288Y172830D01*
X2271Y172820D01*
X2204Y172741D01*
X2132Y172666D01*
X2124Y172648D01*
X2111Y172633D01*
X2072Y172537D01*
X2029Y172443D01*
X2027Y172423D01*
X2019Y172405D01*
X2001Y172238D01*
X2001Y42762D01*
X2004Y42742D01*
X2002Y42723D01*
X2024Y42621D01*
X2040Y42519D01*
X2050Y42502D01*
X2054Y42482D01*
X2107Y42393D01*
X2156Y42302D01*
X2170Y42288D01*
X2180Y42271D01*
X2259Y42204D01*
X2334Y42132D01*
X2352Y42124D01*
X2367Y42111D01*
X2463Y42072D01*
X2557Y42029D01*
X2577Y42027D01*
X2595Y42019D01*
X2762Y42001D01*
X56829Y42001D01*
X58001Y40829D01*
X58001Y20000D01*
X58004Y19978D01*
X58003Y19940D01*
X58215Y17244D01*
X58217Y17238D01*
X58216Y17232D01*
X58250Y17068D01*
X59917Y11939D01*
X59933Y11907D01*
X59942Y11872D01*
X60025Y11727D01*
X63195Y7363D01*
X63220Y7338D01*
X63239Y7308D01*
X63363Y7195D01*
X67727Y4025D01*
X67759Y4009D01*
X67786Y3986D01*
X67939Y3917D01*
X73068Y2250D01*
X73074Y2249D01*
X73079Y2247D01*
X73244Y2215D01*
X75940Y2003D01*
X75962Y2005D01*
X76000Y2001D01*
X390000Y2001D01*
X390020Y2004D01*
G37*
%LPC*%
G36*
X76878Y9999D02*
X76878Y9999D01*
X75999Y10878D01*
X75999Y22622D01*
X76129Y22751D01*
X76198Y22847D01*
X76269Y22944D01*
X76270Y22948D01*
X76272Y22951D01*
X76307Y23065D01*
X76344Y23178D01*
X76344Y23182D01*
X76345Y23186D01*
X76342Y23305D01*
X76340Y23424D01*
X76339Y23428D01*
X76338Y23432D01*
X76298Y23543D01*
X76258Y23656D01*
X76255Y23659D01*
X76254Y23663D01*
X76180Y23756D01*
X76106Y23850D01*
X76102Y23852D01*
X76100Y23855D01*
X76089Y23862D01*
X75971Y23949D01*
X75940Y23967D01*
X75467Y24440D01*
X75132Y25019D01*
X74959Y25666D01*
X74959Y29727D01*
X82488Y29727D01*
X82508Y29730D01*
X82527Y29728D01*
X82629Y29750D01*
X82731Y29767D01*
X82748Y29776D01*
X82768Y29780D01*
X82857Y29833D01*
X82948Y29882D01*
X82962Y29896D01*
X82979Y29906D01*
X83046Y29985D01*
X83117Y30060D01*
X83126Y30078D01*
X83139Y30093D01*
X83178Y30189D01*
X83221Y30283D01*
X83223Y30303D01*
X83231Y30321D01*
X83249Y30488D01*
X83249Y31251D01*
X83251Y31251D01*
X83251Y30488D01*
X83254Y30468D01*
X83252Y30449D01*
X83274Y30347D01*
X83291Y30245D01*
X83300Y30228D01*
X83304Y30208D01*
X83357Y30119D01*
X83406Y30028D01*
X83420Y30014D01*
X83430Y29997D01*
X83509Y29930D01*
X83584Y29859D01*
X83602Y29850D01*
X83617Y29837D01*
X83713Y29798D01*
X83807Y29755D01*
X83827Y29753D01*
X83845Y29745D01*
X84012Y29727D01*
X91541Y29727D01*
X91541Y25665D01*
X91368Y25019D01*
X91033Y24440D01*
X90560Y23967D01*
X90529Y23949D01*
X90499Y23925D01*
X90495Y23922D01*
X90489Y23916D01*
X90436Y23873D01*
X90344Y23799D01*
X90342Y23796D01*
X90338Y23793D01*
X90275Y23692D01*
X90211Y23592D01*
X90210Y23588D01*
X90208Y23585D01*
X90180Y23468D01*
X90151Y23354D01*
X90151Y23350D01*
X90150Y23346D01*
X90161Y23227D01*
X90170Y23109D01*
X90172Y23105D01*
X90172Y23101D01*
X90220Y22991D01*
X90266Y22882D01*
X90269Y22878D01*
X90271Y22875D01*
X90280Y22865D01*
X90371Y22751D01*
X90501Y22622D01*
X90501Y19774D01*
X90504Y19754D01*
X90502Y19735D01*
X90524Y19633D01*
X90540Y19531D01*
X90550Y19514D01*
X90554Y19494D01*
X90607Y19405D01*
X90656Y19314D01*
X90670Y19300D01*
X90680Y19283D01*
X90759Y19216D01*
X90834Y19144D01*
X90852Y19136D01*
X90867Y19123D01*
X90963Y19084D01*
X91057Y19041D01*
X91077Y19039D01*
X91095Y19031D01*
X91262Y19013D01*
X98976Y19013D01*
X98996Y19016D01*
X99015Y19014D01*
X99117Y19036D01*
X99219Y19052D01*
X99236Y19062D01*
X99256Y19066D01*
X99345Y19119D01*
X99436Y19168D01*
X99450Y19182D01*
X99467Y19192D01*
X99534Y19271D01*
X99606Y19346D01*
X99614Y19364D01*
X99627Y19379D01*
X99666Y19475D01*
X99709Y19569D01*
X99711Y19589D01*
X99719Y19607D01*
X99737Y19774D01*
X99737Y56229D01*
X99723Y56319D01*
X99715Y56410D01*
X99703Y56440D01*
X99698Y56472D01*
X99655Y56552D01*
X99619Y56636D01*
X99593Y56668D01*
X99582Y56689D01*
X99559Y56711D01*
X99514Y56767D01*
X97249Y59032D01*
X97249Y62968D01*
X100032Y65751D01*
X104211Y65751D01*
X104282Y65762D01*
X104354Y65764D01*
X104403Y65782D01*
X104454Y65790D01*
X104518Y65824D01*
X104585Y65849D01*
X104626Y65881D01*
X104672Y65906D01*
X104721Y65958D01*
X104777Y66002D01*
X104805Y66046D01*
X104841Y66084D01*
X104871Y66149D01*
X104910Y66209D01*
X104923Y66260D01*
X104945Y66307D01*
X104953Y66378D01*
X104970Y66448D01*
X104966Y66500D01*
X104972Y66551D01*
X104956Y66622D01*
X104951Y66693D01*
X104931Y66741D01*
X104919Y66792D01*
X104883Y66853D01*
X104855Y66919D01*
X104810Y66975D01*
X104793Y67003D01*
X104775Y67018D01*
X104750Y67050D01*
X103774Y68026D01*
X103700Y68079D01*
X103630Y68139D01*
X103600Y68151D01*
X103574Y68170D01*
X103487Y68197D01*
X103402Y68231D01*
X103361Y68235D01*
X103339Y68242D01*
X103307Y68241D01*
X103235Y68249D01*
X100032Y68249D01*
X97249Y71032D01*
X97249Y74968D01*
X99743Y77462D01*
X99755Y77478D01*
X99770Y77490D01*
X99827Y77578D01*
X99887Y77661D01*
X99893Y77680D01*
X99903Y77697D01*
X99929Y77798D01*
X99959Y77897D01*
X99959Y77916D01*
X99963Y77936D01*
X99955Y78039D01*
X99953Y78142D01*
X99946Y78161D01*
X99944Y78181D01*
X99904Y78276D01*
X99868Y78373D01*
X99856Y78389D01*
X99848Y78407D01*
X99743Y78538D01*
X97249Y81032D01*
X97249Y84968D01*
X99743Y87462D01*
X99755Y87478D01*
X99770Y87490D01*
X99827Y87578D01*
X99887Y87661D01*
X99893Y87680D01*
X99903Y87697D01*
X99929Y87798D01*
X99959Y87897D01*
X99959Y87916D01*
X99963Y87936D01*
X99955Y88039D01*
X99953Y88142D01*
X99946Y88161D01*
X99944Y88181D01*
X99904Y88276D01*
X99868Y88373D01*
X99856Y88389D01*
X99848Y88407D01*
X99768Y88507D01*
X99765Y88513D01*
X99761Y88516D01*
X99743Y88538D01*
X97340Y90941D01*
X97282Y90983D01*
X97230Y91032D01*
X97183Y91054D01*
X97141Y91085D01*
X97072Y91106D01*
X97007Y91136D01*
X96955Y91142D01*
X96905Y91157D01*
X96834Y91155D01*
X96763Y91163D01*
X96712Y91152D01*
X96660Y91151D01*
X96592Y91126D01*
X96522Y91111D01*
X96478Y91084D01*
X96429Y91066D01*
X96373Y91021D01*
X96311Y90985D01*
X96277Y90945D01*
X96237Y90913D01*
X96198Y90852D01*
X96151Y90798D01*
X96132Y90749D01*
X96104Y90706D01*
X96086Y90636D01*
X96059Y90570D01*
X96051Y90498D01*
X96043Y90467D01*
X96045Y90444D01*
X96041Y90403D01*
X96041Y88866D01*
X95868Y88219D01*
X95533Y87640D01*
X95060Y87167D01*
X94453Y86816D01*
X94413Y86798D01*
X94323Y86766D01*
X94301Y86748D01*
X94276Y86736D01*
X94206Y86671D01*
X94131Y86612D01*
X94116Y86588D01*
X94095Y86569D01*
X94050Y86485D01*
X93998Y86405D01*
X93991Y86378D01*
X93978Y86353D01*
X93961Y86259D01*
X93938Y86166D01*
X93940Y86138D01*
X93935Y86111D01*
X93950Y86016D01*
X93957Y85921D01*
X93968Y85895D01*
X93973Y85867D01*
X94016Y85783D01*
X94054Y85695D01*
X94076Y85667D01*
X94085Y85649D01*
X94109Y85626D01*
X94158Y85564D01*
X95001Y84722D01*
X95001Y75878D01*
X94122Y74999D01*
X68878Y74999D01*
X67999Y75878D01*
X67999Y84722D01*
X68842Y85564D01*
X68897Y85641D01*
X68958Y85714D01*
X68969Y85741D01*
X68985Y85764D01*
X69013Y85855D01*
X69048Y85944D01*
X69049Y85972D01*
X69057Y85999D01*
X69055Y86094D01*
X69060Y86189D01*
X69052Y86216D01*
X69051Y86245D01*
X69018Y86334D01*
X68992Y86426D01*
X68976Y86449D01*
X68967Y86476D01*
X68907Y86550D01*
X68853Y86629D01*
X68831Y86646D01*
X68813Y86668D01*
X68733Y86719D01*
X68657Y86777D01*
X68624Y86789D01*
X68606Y86801D01*
X68574Y86809D01*
X68532Y86825D01*
X67940Y87167D01*
X67467Y87640D01*
X67132Y88219D01*
X66959Y88866D01*
X66959Y91477D01*
X80738Y91477D01*
X80758Y91480D01*
X80777Y91478D01*
X80879Y91500D01*
X80981Y91517D01*
X80998Y91526D01*
X81018Y91530D01*
X81107Y91583D01*
X81198Y91632D01*
X81212Y91646D01*
X81229Y91656D01*
X81296Y91735D01*
X81367Y91810D01*
X81376Y91828D01*
X81389Y91843D01*
X81428Y91939D01*
X81471Y92033D01*
X81473Y92053D01*
X81481Y92071D01*
X81499Y92238D01*
X81499Y93001D01*
X82262Y93001D01*
X82282Y93004D01*
X82301Y93002D01*
X82403Y93024D01*
X82505Y93041D01*
X82522Y93050D01*
X82542Y93054D01*
X82631Y93107D01*
X82722Y93156D01*
X82736Y93170D01*
X82753Y93180D01*
X82820Y93259D01*
X82891Y93334D01*
X82900Y93352D01*
X82913Y93367D01*
X82952Y93463D01*
X82995Y93557D01*
X82997Y93577D01*
X83005Y93595D01*
X83023Y93762D01*
X83023Y104177D01*
X96488Y104177D01*
X96508Y104180D01*
X96527Y104178D01*
X96629Y104200D01*
X96731Y104217D01*
X96748Y104226D01*
X96768Y104230D01*
X96857Y104283D01*
X96948Y104332D01*
X96962Y104346D01*
X96979Y104356D01*
X97046Y104435D01*
X97118Y104510D01*
X97126Y104528D01*
X97139Y104543D01*
X97178Y104639D01*
X97221Y104733D01*
X97223Y104753D01*
X97231Y104771D01*
X97249Y104938D01*
X97249Y104968D01*
X99743Y107462D01*
X99755Y107478D01*
X99770Y107490D01*
X99827Y107578D01*
X99887Y107661D01*
X99893Y107680D01*
X99903Y107697D01*
X99929Y107798D01*
X99959Y107897D01*
X99959Y107916D01*
X99963Y107936D01*
X99955Y108039D01*
X99953Y108142D01*
X99946Y108161D01*
X99944Y108181D01*
X99904Y108276D01*
X99868Y108373D01*
X99856Y108389D01*
X99848Y108407D01*
X99743Y108538D01*
X97249Y111032D01*
X97249Y114968D01*
X100032Y117751D01*
X103235Y117751D01*
X103326Y117765D01*
X103416Y117773D01*
X103446Y117785D01*
X103478Y117790D01*
X103559Y117833D01*
X103643Y117869D01*
X103675Y117895D01*
X103696Y117906D01*
X103718Y117929D01*
X103774Y117974D01*
X106516Y120716D01*
X106518Y120716D01*
X106607Y120769D01*
X106698Y120818D01*
X106712Y120832D01*
X106729Y120842D01*
X106796Y120921D01*
X106868Y120996D01*
X106876Y121014D01*
X106889Y121029D01*
X106928Y121125D01*
X106971Y121219D01*
X106973Y121239D01*
X106981Y121257D01*
X106999Y121424D01*
X106999Y122822D01*
X107878Y123701D01*
X133122Y123701D01*
X134001Y122822D01*
X134001Y113978D01*
X133122Y113099D01*
X107766Y113099D01*
X107717Y113122D01*
X107665Y113128D01*
X107616Y113143D01*
X107544Y113141D01*
X107473Y113149D01*
X107422Y113138D01*
X107370Y113137D01*
X107302Y113112D01*
X107232Y113097D01*
X107188Y113070D01*
X107139Y113053D01*
X107083Y113008D01*
X107021Y112971D01*
X106987Y112931D01*
X106947Y112899D01*
X106908Y112839D01*
X106892Y112820D01*
X106882Y112810D01*
X106881Y112808D01*
X106861Y112784D01*
X106842Y112736D01*
X106814Y112692D01*
X106797Y112626D01*
X106779Y112587D01*
X106778Y112577D01*
X106769Y112556D01*
X106761Y112485D01*
X106753Y112454D01*
X106755Y112430D01*
X106751Y112389D01*
X106751Y111711D01*
X106762Y111640D01*
X106764Y111568D01*
X106782Y111519D01*
X106790Y111468D01*
X106824Y111405D01*
X106849Y111337D01*
X106881Y111297D01*
X106906Y111251D01*
X106958Y111201D01*
X107003Y111145D01*
X107046Y111117D01*
X107084Y111081D01*
X107149Y111051D01*
X107209Y111012D01*
X107260Y111000D01*
X107307Y110978D01*
X107378Y110970D01*
X107448Y110952D01*
X107500Y110956D01*
X107551Y110951D01*
X107622Y110966D01*
X107693Y110972D01*
X107741Y110992D01*
X107782Y111001D01*
X133122Y111001D01*
X134001Y110122D01*
X134001Y101278D01*
X133122Y100399D01*
X107878Y100399D01*
X107763Y100514D01*
X107689Y100567D01*
X107620Y100627D01*
X107590Y100639D01*
X107564Y100658D01*
X107477Y100685D01*
X107392Y100719D01*
X107351Y100723D01*
X107329Y100730D01*
X107296Y100729D01*
X107225Y100737D01*
X106771Y100737D01*
X106681Y100723D01*
X106590Y100715D01*
X106560Y100703D01*
X106528Y100698D01*
X106448Y100655D01*
X106364Y100619D01*
X106332Y100593D01*
X106311Y100582D01*
X106289Y100559D01*
X106233Y100514D01*
X104257Y98538D01*
X104245Y98522D01*
X104230Y98510D01*
X104174Y98422D01*
X104113Y98339D01*
X104107Y98320D01*
X104097Y98303D01*
X104071Y98202D01*
X104041Y98103D01*
X104041Y98084D01*
X104037Y98064D01*
X104045Y97961D01*
X104047Y97858D01*
X104054Y97839D01*
X104056Y97819D01*
X104096Y97724D01*
X104132Y97627D01*
X104144Y97611D01*
X104152Y97593D01*
X104257Y97462D01*
X105700Y96019D01*
X105758Y95977D01*
X105810Y95928D01*
X105857Y95906D01*
X105899Y95875D01*
X105968Y95854D01*
X106033Y95824D01*
X106085Y95818D01*
X106135Y95803D01*
X106206Y95805D01*
X106277Y95797D01*
X106328Y95808D01*
X106380Y95809D01*
X106448Y95834D01*
X106518Y95849D01*
X106563Y95876D01*
X106611Y95894D01*
X106667Y95939D01*
X106729Y95975D01*
X106763Y96015D01*
X106803Y96047D01*
X106842Y96108D01*
X106889Y96162D01*
X106908Y96211D01*
X106936Y96254D01*
X106954Y96324D01*
X106981Y96390D01*
X106989Y96462D01*
X106997Y96493D01*
X106995Y96516D01*
X106999Y96557D01*
X106999Y97422D01*
X107878Y98301D01*
X133122Y98301D01*
X134001Y97422D01*
X134001Y88578D01*
X133122Y87699D01*
X107878Y87699D01*
X106999Y88578D01*
X106999Y89443D01*
X106988Y89514D01*
X106986Y89585D01*
X106968Y89634D01*
X106960Y89686D01*
X106926Y89749D01*
X106901Y89816D01*
X106869Y89857D01*
X106844Y89903D01*
X106793Y89952D01*
X106748Y90008D01*
X106704Y90037D01*
X106666Y90072D01*
X106601Y90103D01*
X106541Y90141D01*
X106490Y90154D01*
X106443Y90176D01*
X106372Y90184D01*
X106302Y90201D01*
X106250Y90197D01*
X106199Y90203D01*
X106128Y90188D01*
X106057Y90182D01*
X106009Y90162D01*
X105958Y90151D01*
X105897Y90114D01*
X105831Y90086D01*
X105775Y90041D01*
X105747Y90025D01*
X105732Y90007D01*
X105700Y89981D01*
X104257Y88538D01*
X104245Y88522D01*
X104230Y88510D01*
X104199Y88462D01*
X104188Y88450D01*
X104178Y88429D01*
X104173Y88422D01*
X104113Y88339D01*
X104107Y88320D01*
X104097Y88303D01*
X104071Y88202D01*
X104041Y88103D01*
X104041Y88084D01*
X104037Y88064D01*
X104045Y87961D01*
X104047Y87858D01*
X104054Y87839D01*
X104056Y87819D01*
X104096Y87724D01*
X104132Y87627D01*
X104144Y87611D01*
X104152Y87593D01*
X104257Y87462D01*
X106460Y85259D01*
X106476Y85247D01*
X106488Y85232D01*
X106576Y85176D01*
X106660Y85115D01*
X106679Y85109D01*
X106695Y85099D01*
X106796Y85073D01*
X106895Y85043D01*
X106915Y85043D01*
X106934Y85038D01*
X107037Y85047D01*
X107141Y85049D01*
X107159Y85056D01*
X107179Y85058D01*
X107274Y85098D01*
X107372Y85134D01*
X107387Y85146D01*
X107405Y85154D01*
X107536Y85259D01*
X107878Y85601D01*
X133122Y85601D01*
X134001Y84722D01*
X134001Y75878D01*
X133122Y74999D01*
X107766Y74999D01*
X107717Y75022D01*
X107665Y75028D01*
X107616Y75043D01*
X107544Y75041D01*
X107473Y75049D01*
X107422Y75038D01*
X107370Y75037D01*
X107302Y75012D01*
X107232Y74997D01*
X107188Y74970D01*
X107139Y74953D01*
X107083Y74908D01*
X107021Y74871D01*
X106987Y74831D01*
X106947Y74799D01*
X106908Y74739D01*
X106861Y74684D01*
X106842Y74636D01*
X106814Y74592D01*
X106796Y74522D01*
X106769Y74456D01*
X106761Y74385D01*
X106753Y74354D01*
X106755Y74330D01*
X106751Y74289D01*
X106751Y73611D01*
X106762Y73540D01*
X106764Y73468D01*
X106782Y73419D01*
X106790Y73368D01*
X106824Y73305D01*
X106849Y73237D01*
X106881Y73197D01*
X106906Y73151D01*
X106958Y73101D01*
X107003Y73045D01*
X107046Y73017D01*
X107084Y72981D01*
X107149Y72951D01*
X107209Y72912D01*
X107260Y72900D01*
X107307Y72878D01*
X107378Y72870D01*
X107448Y72852D01*
X107500Y72856D01*
X107551Y72851D01*
X107622Y72866D01*
X107693Y72872D01*
X107741Y72892D01*
X107782Y72901D01*
X133122Y72901D01*
X134001Y72022D01*
X134001Y63178D01*
X133122Y62299D01*
X107766Y62299D01*
X107717Y62322D01*
X107665Y62328D01*
X107616Y62343D01*
X107544Y62341D01*
X107473Y62349D01*
X107422Y62338D01*
X107370Y62337D01*
X107302Y62312D01*
X107232Y62297D01*
X107188Y62270D01*
X107139Y62253D01*
X107083Y62208D01*
X107021Y62171D01*
X106987Y62131D01*
X106947Y62099D01*
X106908Y62039D01*
X106861Y61984D01*
X106842Y61936D01*
X106814Y61892D01*
X106796Y61822D01*
X106769Y61756D01*
X106761Y61685D01*
X106753Y61654D01*
X106755Y61630D01*
X106751Y61589D01*
X106751Y59032D01*
X104486Y56767D01*
X104433Y56693D01*
X104373Y56624D01*
X104361Y56594D01*
X104342Y56567D01*
X104315Y56480D01*
X104281Y56396D01*
X104277Y56355D01*
X104270Y56332D01*
X104271Y56300D01*
X104263Y56229D01*
X104263Y20753D01*
X104277Y20662D01*
X104285Y20572D01*
X104297Y20542D01*
X104302Y20510D01*
X104345Y20429D01*
X104381Y20345D01*
X104407Y20313D01*
X104418Y20292D01*
X104441Y20270D01*
X104486Y20214D01*
X105464Y19236D01*
X105538Y19183D01*
X105608Y19123D01*
X105638Y19111D01*
X105664Y19092D01*
X105751Y19065D01*
X105836Y19031D01*
X105877Y19027D01*
X105899Y19020D01*
X105931Y19021D01*
X106003Y19013D01*
X108738Y19013D01*
X108758Y19016D01*
X108777Y19014D01*
X108879Y19036D01*
X108981Y19052D01*
X108998Y19062D01*
X109018Y19066D01*
X109107Y19119D01*
X109198Y19168D01*
X109212Y19182D01*
X109229Y19192D01*
X109296Y19271D01*
X109368Y19346D01*
X109376Y19364D01*
X109389Y19379D01*
X109428Y19475D01*
X109471Y19569D01*
X109473Y19589D01*
X109481Y19607D01*
X109499Y19774D01*
X109499Y22622D01*
X109629Y22751D01*
X109698Y22848D01*
X109769Y22944D01*
X109770Y22948D01*
X109772Y22951D01*
X109807Y23064D01*
X109844Y23178D01*
X109844Y23182D01*
X109845Y23186D01*
X109842Y23305D01*
X109840Y23424D01*
X109839Y23428D01*
X109838Y23432D01*
X109797Y23545D01*
X109758Y23656D01*
X109755Y23659D01*
X109754Y23663D01*
X109679Y23757D01*
X109606Y23850D01*
X109602Y23852D01*
X109600Y23855D01*
X109589Y23863D01*
X109471Y23949D01*
X109440Y23967D01*
X108967Y24440D01*
X108632Y25019D01*
X108459Y25666D01*
X108459Y29727D01*
X115988Y29727D01*
X116008Y29730D01*
X116027Y29728D01*
X116129Y29750D01*
X116231Y29767D01*
X116248Y29776D01*
X116268Y29780D01*
X116357Y29833D01*
X116448Y29882D01*
X116462Y29896D01*
X116479Y29906D01*
X116546Y29985D01*
X116617Y30060D01*
X116626Y30078D01*
X116639Y30093D01*
X116678Y30189D01*
X116721Y30283D01*
X116723Y30303D01*
X116731Y30321D01*
X116749Y30488D01*
X116749Y31251D01*
X116751Y31251D01*
X116751Y30488D01*
X116754Y30468D01*
X116752Y30449D01*
X116774Y30347D01*
X116791Y30245D01*
X116800Y30228D01*
X116804Y30208D01*
X116857Y30119D01*
X116906Y30028D01*
X116920Y30014D01*
X116930Y29997D01*
X117009Y29930D01*
X117084Y29859D01*
X117102Y29850D01*
X117117Y29837D01*
X117213Y29798D01*
X117307Y29755D01*
X117327Y29753D01*
X117345Y29745D01*
X117512Y29727D01*
X125041Y29727D01*
X125041Y25665D01*
X124868Y25019D01*
X124533Y24440D01*
X124060Y23967D01*
X124029Y23949D01*
X123999Y23925D01*
X123995Y23922D01*
X123989Y23916D01*
X123938Y23874D01*
X123844Y23799D01*
X123842Y23796D01*
X123838Y23793D01*
X123775Y23693D01*
X123711Y23592D01*
X123710Y23588D01*
X123708Y23585D01*
X123680Y23469D01*
X123651Y23354D01*
X123651Y23350D01*
X123650Y23346D01*
X123661Y23226D01*
X123670Y23109D01*
X123672Y23105D01*
X123672Y23101D01*
X123721Y22989D01*
X123766Y22882D01*
X123769Y22878D01*
X123771Y22875D01*
X123780Y22865D01*
X123871Y22751D01*
X124001Y22622D01*
X124001Y10878D01*
X123122Y9999D01*
X110378Y9999D01*
X109499Y10878D01*
X109499Y13726D01*
X109496Y13746D01*
X109498Y13765D01*
X109476Y13867D01*
X109460Y13969D01*
X109450Y13986D01*
X109446Y14006D01*
X109393Y14095D01*
X109344Y14186D01*
X109330Y14200D01*
X109320Y14217D01*
X109241Y14284D01*
X109166Y14356D01*
X109148Y14364D01*
X109133Y14377D01*
X109037Y14416D01*
X108943Y14459D01*
X108923Y14461D01*
X108905Y14469D01*
X108738Y14487D01*
X91262Y14487D01*
X91242Y14484D01*
X91223Y14486D01*
X91121Y14464D01*
X91019Y14448D01*
X91002Y14438D01*
X90982Y14434D01*
X90893Y14381D01*
X90802Y14332D01*
X90788Y14318D01*
X90771Y14308D01*
X90704Y14229D01*
X90632Y14154D01*
X90624Y14136D01*
X90611Y14121D01*
X90572Y14025D01*
X90529Y13931D01*
X90527Y13911D01*
X90519Y13893D01*
X90501Y13726D01*
X90501Y10878D01*
X89622Y9999D01*
X76878Y9999D01*
G37*
%LPD*%
%LPC*%
G36*
X36609Y47889D02*
X36609Y47889D01*
X31289Y53209D01*
X31289Y60731D01*
X36609Y66051D01*
X44131Y66051D01*
X44294Y65889D01*
X44310Y65877D01*
X44322Y65861D01*
X44409Y65805D01*
X44493Y65745D01*
X44512Y65739D01*
X44529Y65728D01*
X44629Y65703D01*
X44728Y65673D01*
X44748Y65673D01*
X44768Y65668D01*
X44871Y65676D01*
X44974Y65679D01*
X44993Y65686D01*
X45013Y65687D01*
X45108Y65728D01*
X45205Y65763D01*
X45221Y65776D01*
X45239Y65784D01*
X45370Y65889D01*
X53006Y73525D01*
X53059Y73599D01*
X53119Y73668D01*
X53131Y73698D01*
X53150Y73724D01*
X53177Y73811D01*
X53211Y73896D01*
X53215Y73937D01*
X53222Y73960D01*
X53221Y73992D01*
X53229Y74063D01*
X53229Y110148D01*
X64252Y121171D01*
X67238Y121171D01*
X67258Y121174D01*
X67277Y121172D01*
X67379Y121194D01*
X67481Y121210D01*
X67498Y121220D01*
X67518Y121224D01*
X67607Y121277D01*
X67698Y121326D01*
X67712Y121340D01*
X67729Y121350D01*
X67796Y121429D01*
X67868Y121504D01*
X67876Y121522D01*
X67889Y121537D01*
X67928Y121633D01*
X67971Y121727D01*
X67973Y121747D01*
X67981Y121765D01*
X67999Y121932D01*
X67999Y122822D01*
X68878Y123701D01*
X82567Y123701D01*
X82657Y123715D01*
X82748Y123723D01*
X82778Y123735D01*
X82810Y123740D01*
X82890Y123783D01*
X82974Y123819D01*
X83006Y123845D01*
X83027Y123856D01*
X83049Y123879D01*
X83105Y123924D01*
X87506Y128325D01*
X87559Y128399D01*
X87619Y128468D01*
X87631Y128498D01*
X87650Y128524D01*
X87677Y128612D01*
X87711Y128696D01*
X87715Y128737D01*
X87722Y128760D01*
X87721Y128792D01*
X87729Y128863D01*
X87729Y133238D01*
X87726Y133258D01*
X87728Y133277D01*
X87706Y133379D01*
X87690Y133481D01*
X87680Y133498D01*
X87676Y133518D01*
X87623Y133607D01*
X87574Y133698D01*
X87560Y133712D01*
X87550Y133729D01*
X87471Y133796D01*
X87396Y133868D01*
X87378Y133876D01*
X87363Y133889D01*
X87267Y133928D01*
X87173Y133971D01*
X87153Y133973D01*
X87135Y133981D01*
X86968Y133999D01*
X83378Y133999D01*
X82499Y134878D01*
X82499Y151122D01*
X83378Y152001D01*
X91267Y152001D01*
X91357Y152015D01*
X91448Y152023D01*
X91478Y152035D01*
X91510Y152040D01*
X91590Y152083D01*
X91674Y152119D01*
X91706Y152145D01*
X91727Y152156D01*
X91749Y152179D01*
X91805Y152224D01*
X95741Y156160D01*
X95783Y156218D01*
X95833Y156270D01*
X95855Y156317D01*
X95885Y156359D01*
X95906Y156428D01*
X95936Y156493D01*
X95942Y156545D01*
X95957Y156595D01*
X95955Y156666D01*
X95963Y156737D01*
X95952Y156788D01*
X95951Y156840D01*
X95926Y156908D01*
X95911Y156978D01*
X95884Y157022D01*
X95866Y157071D01*
X95822Y157127D01*
X95785Y157189D01*
X95745Y157223D01*
X95713Y157263D01*
X95652Y157302D01*
X95598Y157349D01*
X95550Y157368D01*
X95506Y157396D01*
X95436Y157414D01*
X95370Y157441D01*
X95298Y157449D01*
X95267Y157457D01*
X95244Y157455D01*
X95203Y157459D01*
X86773Y157459D01*
X86773Y167477D01*
X98541Y167477D01*
X98541Y160797D01*
X98552Y160726D01*
X98554Y160655D01*
X98572Y160606D01*
X98580Y160554D01*
X98614Y160491D01*
X98639Y160424D01*
X98671Y160383D01*
X98696Y160337D01*
X98748Y160287D01*
X98792Y160231D01*
X98836Y160203D01*
X98874Y160167D01*
X98939Y160137D01*
X98999Y160098D01*
X99050Y160086D01*
X99097Y160064D01*
X99168Y160056D01*
X99238Y160038D01*
X99290Y160042D01*
X99341Y160037D01*
X99412Y160052D01*
X99483Y160058D01*
X99531Y160078D01*
X99582Y160089D01*
X99643Y160126D01*
X99709Y160154D01*
X99765Y160199D01*
X99793Y160215D01*
X99808Y160233D01*
X99840Y160259D01*
X102276Y162695D01*
X102329Y162769D01*
X102389Y162838D01*
X102401Y162868D01*
X102420Y162894D01*
X102447Y162982D01*
X102481Y163066D01*
X102485Y163107D01*
X102492Y163130D01*
X102491Y163162D01*
X102499Y163233D01*
X102499Y178622D01*
X103378Y179501D01*
X115017Y179501D01*
X115107Y179515D01*
X115198Y179523D01*
X115228Y179535D01*
X115260Y179540D01*
X115340Y179583D01*
X115424Y179619D01*
X115456Y179645D01*
X115477Y179656D01*
X115499Y179679D01*
X115555Y179724D01*
X118026Y182195D01*
X118079Y182269D01*
X118139Y182338D01*
X118151Y182368D01*
X118170Y182394D01*
X118197Y182481D01*
X118231Y182566D01*
X118235Y182607D01*
X118242Y182630D01*
X118241Y182662D01*
X118249Y182733D01*
X118249Y184968D01*
X121032Y187751D01*
X124968Y187751D01*
X127751Y184968D01*
X127751Y181032D01*
X126709Y179990D01*
X126697Y179974D01*
X126682Y179962D01*
X126626Y179874D01*
X126565Y179790D01*
X126559Y179771D01*
X126549Y179755D01*
X126523Y179654D01*
X126493Y179555D01*
X126493Y179535D01*
X126488Y179516D01*
X126497Y179413D01*
X126499Y179309D01*
X126506Y179291D01*
X126508Y179271D01*
X126548Y179176D01*
X126584Y179078D01*
X126596Y179063D01*
X126604Y179045D01*
X126709Y178914D01*
X127001Y178622D01*
X127001Y159378D01*
X126122Y158499D01*
X106233Y158499D01*
X106143Y158485D01*
X106052Y158477D01*
X106022Y158465D01*
X105990Y158460D01*
X105910Y158417D01*
X105826Y158381D01*
X105794Y158355D01*
X105773Y158344D01*
X105751Y158321D01*
X105695Y158276D01*
X98724Y151305D01*
X98671Y151231D01*
X98611Y151162D01*
X98599Y151132D01*
X98580Y151106D01*
X98553Y151019D01*
X98519Y150934D01*
X98515Y150893D01*
X98508Y150870D01*
X98509Y150838D01*
X98501Y150767D01*
X98501Y134878D01*
X97622Y133999D01*
X94032Y133999D01*
X94012Y133996D01*
X93993Y133998D01*
X93891Y133976D01*
X93789Y133960D01*
X93772Y133950D01*
X93752Y133946D01*
X93663Y133893D01*
X93572Y133844D01*
X93558Y133830D01*
X93541Y133820D01*
X93474Y133741D01*
X93402Y133666D01*
X93394Y133648D01*
X93381Y133633D01*
X93342Y133537D01*
X93299Y133443D01*
X93297Y133423D01*
X93289Y133405D01*
X93271Y133238D01*
X93271Y126252D01*
X92019Y125000D01*
X91977Y124942D01*
X91927Y124890D01*
X91906Y124843D01*
X91875Y124801D01*
X91854Y124732D01*
X91824Y124667D01*
X91818Y124615D01*
X91803Y124565D01*
X91805Y124494D01*
X91797Y124423D01*
X91808Y124372D01*
X91809Y124320D01*
X91834Y124252D01*
X91849Y124182D01*
X91876Y124137D01*
X91894Y124089D01*
X91938Y124033D01*
X91975Y123971D01*
X92015Y123937D01*
X92047Y123897D01*
X92108Y123858D01*
X92162Y123811D01*
X92210Y123792D01*
X92254Y123764D01*
X92324Y123746D01*
X92390Y123719D01*
X92462Y123711D01*
X92493Y123703D01*
X92516Y123705D01*
X92557Y123701D01*
X94122Y123701D01*
X95001Y122822D01*
X95001Y113978D01*
X94158Y113136D01*
X94103Y113059D01*
X94042Y112986D01*
X94031Y112959D01*
X94015Y112936D01*
X93987Y112845D01*
X93952Y112756D01*
X93951Y112728D01*
X93943Y112701D01*
X93945Y112606D01*
X93940Y112511D01*
X93948Y112484D01*
X93949Y112455D01*
X93982Y112366D01*
X94008Y112274D01*
X94024Y112251D01*
X94033Y112224D01*
X94093Y112150D01*
X94147Y112071D01*
X94169Y112054D01*
X94187Y112032D01*
X94267Y111981D01*
X94343Y111923D01*
X94376Y111911D01*
X94394Y111899D01*
X94426Y111891D01*
X94468Y111875D01*
X95060Y111533D01*
X95533Y111060D01*
X95829Y110548D01*
X95859Y110511D01*
X95881Y110469D01*
X95889Y110415D01*
X95891Y110393D01*
X95894Y110387D01*
X95895Y110377D01*
X96041Y109834D01*
X96041Y107223D01*
X82262Y107223D01*
X82242Y107220D01*
X82223Y107222D01*
X82121Y107200D01*
X82019Y107183D01*
X82002Y107174D01*
X81982Y107170D01*
X81893Y107117D01*
X81802Y107068D01*
X81788Y107054D01*
X81771Y107044D01*
X81704Y106965D01*
X81633Y106890D01*
X81624Y106872D01*
X81611Y106857D01*
X81572Y106761D01*
X81529Y106667D01*
X81527Y106647D01*
X81519Y106629D01*
X81501Y106462D01*
X81501Y105699D01*
X81499Y105699D01*
X81499Y106462D01*
X81496Y106482D01*
X81498Y106501D01*
X81476Y106603D01*
X81459Y106705D01*
X81450Y106722D01*
X81446Y106742D01*
X81393Y106831D01*
X81344Y106922D01*
X81330Y106936D01*
X81320Y106953D01*
X81241Y107020D01*
X81166Y107091D01*
X81148Y107100D01*
X81133Y107113D01*
X81037Y107152D01*
X80943Y107195D01*
X80923Y107197D01*
X80905Y107205D01*
X80738Y107223D01*
X66959Y107223D01*
X66959Y109834D01*
X67132Y110481D01*
X67467Y111060D01*
X67940Y111533D01*
X68547Y111884D01*
X68587Y111902D01*
X68677Y111934D01*
X68699Y111952D01*
X68724Y111964D01*
X68794Y112029D01*
X68869Y112088D01*
X68884Y112112D01*
X68905Y112131D01*
X68950Y112215D01*
X69002Y112295D01*
X69009Y112322D01*
X69022Y112347D01*
X69039Y112441D01*
X69062Y112534D01*
X69060Y112562D01*
X69065Y112589D01*
X69050Y112684D01*
X69043Y112779D01*
X69032Y112805D01*
X69027Y112833D01*
X68984Y112917D01*
X68946Y113005D01*
X68924Y113033D01*
X68915Y113051D01*
X68891Y113074D01*
X68842Y113136D01*
X67999Y113978D01*
X67999Y114868D01*
X67996Y114888D01*
X67998Y114907D01*
X67976Y115009D01*
X67960Y115111D01*
X67950Y115128D01*
X67946Y115148D01*
X67893Y115237D01*
X67844Y115328D01*
X67830Y115342D01*
X67820Y115359D01*
X67741Y115426D01*
X67666Y115498D01*
X67648Y115506D01*
X67633Y115519D01*
X67537Y115558D01*
X67443Y115601D01*
X67423Y115603D01*
X67405Y115611D01*
X67238Y115629D01*
X66863Y115629D01*
X66773Y115615D01*
X66682Y115607D01*
X66652Y115595D01*
X66620Y115590D01*
X66540Y115547D01*
X66456Y115511D01*
X66424Y115485D01*
X66403Y115474D01*
X66381Y115451D01*
X66325Y115406D01*
X58994Y108075D01*
X58941Y108001D01*
X58881Y107932D01*
X58869Y107902D01*
X58850Y107876D01*
X58823Y107789D01*
X58789Y107704D01*
X58785Y107663D01*
X58778Y107640D01*
X58779Y107608D01*
X58771Y107537D01*
X58771Y71452D01*
X56925Y69606D01*
X49289Y61970D01*
X49277Y61954D01*
X49261Y61941D01*
X49205Y61854D01*
X49145Y61770D01*
X49139Y61751D01*
X49128Y61735D01*
X49103Y61634D01*
X49073Y61535D01*
X49073Y61515D01*
X49068Y61496D01*
X49076Y61393D01*
X49079Y61289D01*
X49086Y61271D01*
X49087Y61251D01*
X49128Y61156D01*
X49163Y61058D01*
X49176Y61043D01*
X49184Y61024D01*
X49289Y60894D01*
X49451Y60731D01*
X49451Y53209D01*
X44131Y47889D01*
X36609Y47889D01*
G37*
%LPD*%
%LPC*%
G36*
X132032Y132249D02*
X132032Y132249D01*
X129249Y135032D01*
X129249Y138235D01*
X129235Y138326D01*
X129227Y138416D01*
X129215Y138446D01*
X129210Y138478D01*
X129167Y138559D01*
X129131Y138643D01*
X129105Y138675D01*
X129094Y138696D01*
X129071Y138718D01*
X129026Y138774D01*
X127286Y140514D01*
X127212Y140567D01*
X127142Y140627D01*
X127112Y140639D01*
X127086Y140658D01*
X126999Y140685D01*
X126914Y140719D01*
X126873Y140723D01*
X126851Y140730D01*
X126819Y140729D01*
X126747Y140737D01*
X118262Y140737D01*
X118242Y140734D01*
X118223Y140736D01*
X118121Y140714D01*
X118019Y140698D01*
X118002Y140688D01*
X117982Y140684D01*
X117893Y140631D01*
X117802Y140582D01*
X117788Y140568D01*
X117771Y140558D01*
X117704Y140479D01*
X117632Y140404D01*
X117624Y140386D01*
X117611Y140371D01*
X117572Y140275D01*
X117529Y140181D01*
X117527Y140161D01*
X117519Y140143D01*
X117501Y139976D01*
X117501Y134878D01*
X116622Y133999D01*
X102378Y133999D01*
X101499Y134878D01*
X101499Y151122D01*
X102378Y152001D01*
X116622Y152001D01*
X117501Y151122D01*
X117501Y146024D01*
X117504Y146004D01*
X117502Y145985D01*
X117524Y145883D01*
X117540Y145781D01*
X117550Y145764D01*
X117554Y145744D01*
X117607Y145655D01*
X117656Y145564D01*
X117670Y145550D01*
X117680Y145533D01*
X117759Y145466D01*
X117834Y145394D01*
X117852Y145386D01*
X117867Y145373D01*
X117963Y145334D01*
X118057Y145291D01*
X118077Y145289D01*
X118095Y145281D01*
X118262Y145263D01*
X128937Y145263D01*
X130438Y143762D01*
X130496Y143720D01*
X130548Y143671D01*
X130595Y143649D01*
X130637Y143619D01*
X130706Y143598D01*
X130771Y143567D01*
X130823Y143562D01*
X130873Y143546D01*
X130944Y143548D01*
X131015Y143540D01*
X131066Y143551D01*
X131118Y143553D01*
X131186Y143577D01*
X131256Y143593D01*
X131301Y143619D01*
X131349Y143637D01*
X131405Y143682D01*
X131467Y143719D01*
X131501Y143758D01*
X131541Y143791D01*
X131580Y143851D01*
X131627Y143906D01*
X131646Y143954D01*
X131674Y143998D01*
X131692Y144067D01*
X131719Y144134D01*
X131727Y144205D01*
X131735Y144236D01*
X131733Y144260D01*
X131737Y144301D01*
X131737Y206747D01*
X131723Y206838D01*
X131715Y206928D01*
X131703Y206958D01*
X131698Y206990D01*
X131655Y207071D01*
X131619Y207155D01*
X131593Y207187D01*
X131582Y207208D01*
X131559Y207230D01*
X131514Y207286D01*
X128036Y210764D01*
X127962Y210817D01*
X127892Y210877D01*
X127862Y210889D01*
X127836Y210908D01*
X127749Y210935D01*
X127664Y210969D01*
X127623Y210973D01*
X127601Y210980D01*
X127569Y210979D01*
X127497Y210987D01*
X124762Y210987D01*
X124742Y210984D01*
X124723Y210986D01*
X124621Y210964D01*
X124519Y210948D01*
X124502Y210938D01*
X124482Y210934D01*
X124393Y210881D01*
X124302Y210832D01*
X124288Y210818D01*
X124271Y210808D01*
X124204Y210729D01*
X124132Y210654D01*
X124124Y210636D01*
X124111Y210621D01*
X124072Y210525D01*
X124029Y210431D01*
X124027Y210411D01*
X124019Y210393D01*
X124001Y210226D01*
X124001Y207378D01*
X123871Y207249D01*
X123802Y207152D01*
X123731Y207056D01*
X123730Y207052D01*
X123728Y207049D01*
X123693Y206936D01*
X123656Y206822D01*
X123656Y206818D01*
X123655Y206814D01*
X123658Y206695D01*
X123660Y206576D01*
X123661Y206572D01*
X123662Y206568D01*
X123703Y206455D01*
X123742Y206344D01*
X123745Y206341D01*
X123746Y206337D01*
X123821Y206243D01*
X123894Y206150D01*
X123898Y206148D01*
X123900Y206145D01*
X123911Y206137D01*
X124029Y206051D01*
X124060Y206033D01*
X124533Y205560D01*
X124868Y204981D01*
X125041Y204334D01*
X125041Y200273D01*
X117512Y200273D01*
X117492Y200270D01*
X117473Y200272D01*
X117371Y200250D01*
X117269Y200233D01*
X117252Y200224D01*
X117232Y200220D01*
X117143Y200167D01*
X117052Y200118D01*
X117038Y200104D01*
X117021Y200094D01*
X116954Y200015D01*
X116883Y199940D01*
X116874Y199922D01*
X116861Y199907D01*
X116822Y199811D01*
X116779Y199717D01*
X116777Y199697D01*
X116769Y199679D01*
X116751Y199512D01*
X116751Y198749D01*
X116749Y198749D01*
X116749Y199512D01*
X116746Y199532D01*
X116748Y199551D01*
X116726Y199653D01*
X116709Y199755D01*
X116700Y199772D01*
X116696Y199792D01*
X116643Y199881D01*
X116594Y199972D01*
X116580Y199986D01*
X116570Y200003D01*
X116491Y200070D01*
X116416Y200141D01*
X116398Y200150D01*
X116383Y200163D01*
X116287Y200202D01*
X116193Y200245D01*
X116173Y200247D01*
X116155Y200255D01*
X115988Y200273D01*
X108459Y200273D01*
X108459Y204334D01*
X108632Y204981D01*
X108967Y205560D01*
X109440Y206033D01*
X109471Y206051D01*
X109562Y206126D01*
X109656Y206201D01*
X109658Y206204D01*
X109662Y206207D01*
X109725Y206307D01*
X109789Y206408D01*
X109790Y206412D01*
X109792Y206415D01*
X109820Y206531D01*
X109849Y206646D01*
X109849Y206650D01*
X109850Y206654D01*
X109839Y206774D01*
X109830Y206891D01*
X109828Y206895D01*
X109828Y206899D01*
X109780Y207009D01*
X109734Y207118D01*
X109731Y207122D01*
X109729Y207125D01*
X109720Y207135D01*
X109629Y207249D01*
X109499Y207378D01*
X109499Y210226D01*
X109496Y210246D01*
X109498Y210265D01*
X109476Y210367D01*
X109460Y210469D01*
X109450Y210486D01*
X109446Y210506D01*
X109393Y210595D01*
X109344Y210686D01*
X109330Y210700D01*
X109320Y210717D01*
X109241Y210784D01*
X109166Y210856D01*
X109148Y210864D01*
X109133Y210877D01*
X109037Y210916D01*
X108943Y210959D01*
X108923Y210961D01*
X108905Y210969D01*
X108738Y210987D01*
X91262Y210987D01*
X91242Y210984D01*
X91223Y210986D01*
X91121Y210964D01*
X91019Y210948D01*
X91002Y210938D01*
X90982Y210934D01*
X90893Y210881D01*
X90802Y210832D01*
X90788Y210818D01*
X90771Y210808D01*
X90704Y210729D01*
X90632Y210654D01*
X90624Y210636D01*
X90611Y210621D01*
X90572Y210525D01*
X90529Y210431D01*
X90527Y210411D01*
X90519Y210393D01*
X90501Y210226D01*
X90501Y207378D01*
X90371Y207249D01*
X90302Y207153D01*
X90231Y207056D01*
X90230Y207052D01*
X90228Y207049D01*
X90193Y206935D01*
X90156Y206822D01*
X90156Y206818D01*
X90155Y206814D01*
X90158Y206694D01*
X90160Y206576D01*
X90161Y206572D01*
X90162Y206568D01*
X90202Y206456D01*
X90242Y206344D01*
X90245Y206341D01*
X90246Y206337D01*
X90320Y206244D01*
X90394Y206150D01*
X90398Y206148D01*
X90400Y206145D01*
X90411Y206138D01*
X90529Y206051D01*
X90560Y206033D01*
X91033Y205560D01*
X91368Y204981D01*
X91541Y204334D01*
X91541Y200273D01*
X84012Y200273D01*
X83992Y200270D01*
X83973Y200272D01*
X83871Y200250D01*
X83769Y200233D01*
X83752Y200224D01*
X83732Y200220D01*
X83643Y200167D01*
X83552Y200118D01*
X83538Y200104D01*
X83521Y200094D01*
X83454Y200015D01*
X83383Y199940D01*
X83374Y199922D01*
X83361Y199907D01*
X83322Y199811D01*
X83279Y199717D01*
X83277Y199697D01*
X83269Y199679D01*
X83251Y199512D01*
X83251Y198749D01*
X83249Y198749D01*
X83249Y199512D01*
X83246Y199532D01*
X83248Y199551D01*
X83226Y199653D01*
X83209Y199755D01*
X83200Y199772D01*
X83196Y199792D01*
X83143Y199881D01*
X83094Y199972D01*
X83080Y199986D01*
X83070Y200003D01*
X82991Y200070D01*
X82916Y200141D01*
X82898Y200150D01*
X82883Y200163D01*
X82787Y200202D01*
X82693Y200245D01*
X82673Y200247D01*
X82655Y200255D01*
X82488Y200273D01*
X74959Y200273D01*
X74959Y204334D01*
X75132Y204981D01*
X75467Y205560D01*
X75940Y206033D01*
X75971Y206051D01*
X76063Y206126D01*
X76156Y206201D01*
X76158Y206204D01*
X76162Y206207D01*
X76225Y206308D01*
X76289Y206408D01*
X76290Y206412D01*
X76292Y206415D01*
X76320Y206532D01*
X76349Y206646D01*
X76349Y206650D01*
X76350Y206654D01*
X76339Y206773D01*
X76330Y206891D01*
X76328Y206895D01*
X76328Y206899D01*
X76281Y207008D01*
X76234Y207118D01*
X76231Y207122D01*
X76229Y207125D01*
X76220Y207135D01*
X76129Y207249D01*
X75999Y207378D01*
X75999Y219122D01*
X76878Y220001D01*
X89622Y220001D01*
X90501Y219122D01*
X90501Y216274D01*
X90504Y216254D01*
X90502Y216235D01*
X90524Y216133D01*
X90540Y216031D01*
X90550Y216014D01*
X90554Y215994D01*
X90607Y215905D01*
X90656Y215814D01*
X90670Y215800D01*
X90680Y215783D01*
X90759Y215716D01*
X90834Y215644D01*
X90852Y215636D01*
X90867Y215623D01*
X90963Y215584D01*
X91057Y215541D01*
X91077Y215539D01*
X91095Y215531D01*
X91262Y215513D01*
X108738Y215513D01*
X108758Y215516D01*
X108777Y215514D01*
X108879Y215536D01*
X108981Y215552D01*
X108998Y215562D01*
X109018Y215566D01*
X109107Y215619D01*
X109198Y215668D01*
X109212Y215682D01*
X109229Y215692D01*
X109296Y215771D01*
X109368Y215846D01*
X109376Y215864D01*
X109389Y215879D01*
X109428Y215975D01*
X109471Y216069D01*
X109473Y216089D01*
X109481Y216107D01*
X109499Y216274D01*
X109499Y219122D01*
X110378Y220001D01*
X123122Y220001D01*
X124001Y219122D01*
X124001Y216274D01*
X124004Y216254D01*
X124002Y216235D01*
X124024Y216133D01*
X124040Y216031D01*
X124050Y216014D01*
X124054Y215994D01*
X124107Y215905D01*
X124156Y215814D01*
X124170Y215800D01*
X124180Y215783D01*
X124259Y215716D01*
X124334Y215644D01*
X124352Y215636D01*
X124367Y215623D01*
X124463Y215584D01*
X124557Y215541D01*
X124577Y215539D01*
X124595Y215531D01*
X124762Y215513D01*
X129687Y215513D01*
X136263Y208937D01*
X136263Y141771D01*
X136277Y141681D01*
X136285Y141590D01*
X136297Y141560D01*
X136302Y141528D01*
X136345Y141448D01*
X136381Y141364D01*
X136407Y141332D01*
X136418Y141311D01*
X136441Y141289D01*
X136486Y141233D01*
X138751Y138968D01*
X138751Y135032D01*
X135968Y132249D01*
X132032Y132249D01*
G37*
%LPD*%
%LPC*%
G36*
X142266Y70943D02*
X142266Y70943D01*
X141387Y71822D01*
X141387Y80178D01*
X142266Y81057D01*
X151541Y81057D01*
X151632Y81071D01*
X151722Y81079D01*
X151752Y81091D01*
X151784Y81096D01*
X151865Y81139D01*
X151949Y81175D01*
X151981Y81201D01*
X152002Y81212D01*
X152024Y81235D01*
X152080Y81280D01*
X154344Y83544D01*
X154386Y83602D01*
X154435Y83654D01*
X154457Y83701D01*
X154487Y83743D01*
X154508Y83812D01*
X154539Y83877D01*
X154544Y83929D01*
X154560Y83979D01*
X154558Y84050D01*
X154566Y84121D01*
X154555Y84172D01*
X154553Y84224D01*
X154529Y84292D01*
X154513Y84362D01*
X154487Y84407D01*
X154469Y84455D01*
X154424Y84511D01*
X154387Y84573D01*
X154348Y84607D01*
X154315Y84647D01*
X154255Y84686D01*
X154200Y84733D01*
X154152Y84752D01*
X154108Y84780D01*
X154039Y84798D01*
X153972Y84825D01*
X153901Y84833D01*
X153870Y84841D01*
X153846Y84839D01*
X153805Y84843D01*
X142266Y84843D01*
X141387Y85722D01*
X141387Y94078D01*
X142266Y94957D01*
X157734Y94957D01*
X158613Y94078D01*
X158613Y89651D01*
X158624Y89580D01*
X158626Y89508D01*
X158644Y89459D01*
X158652Y89408D01*
X158686Y89345D01*
X158711Y89277D01*
X158743Y89236D01*
X158768Y89190D01*
X158819Y89141D01*
X158864Y89085D01*
X158908Y89057D01*
X158946Y89021D01*
X159011Y88991D01*
X159071Y88952D01*
X159122Y88939D01*
X159169Y88917D01*
X159240Y88909D01*
X159310Y88892D01*
X159362Y88896D01*
X159413Y88890D01*
X159484Y88906D01*
X159555Y88911D01*
X159603Y88931D01*
X159654Y88943D01*
X159715Y88979D01*
X159781Y89007D01*
X159837Y89052D01*
X159865Y89069D01*
X159880Y89087D01*
X159912Y89112D01*
X169629Y98829D01*
X169646Y98852D01*
X169667Y98870D01*
X169762Y99008D01*
X174647Y108124D01*
X174680Y108221D01*
X174719Y108317D01*
X174722Y108342D01*
X174727Y108357D01*
X174727Y108389D01*
X174737Y108484D01*
X174737Y120229D01*
X174723Y120319D01*
X174715Y120410D01*
X174703Y120440D01*
X174698Y120472D01*
X174655Y120552D01*
X174619Y120636D01*
X174593Y120668D01*
X174582Y120689D01*
X174559Y120711D01*
X174514Y120767D01*
X172249Y123032D01*
X172249Y126968D01*
X175032Y129751D01*
X178968Y129751D01*
X181751Y126968D01*
X181751Y123032D01*
X179486Y120767D01*
X179433Y120693D01*
X179373Y120624D01*
X179361Y120594D01*
X179342Y120567D01*
X179315Y120480D01*
X179281Y120396D01*
X179277Y120355D01*
X179270Y120332D01*
X179271Y120300D01*
X179263Y120229D01*
X179263Y108171D01*
X179267Y108144D01*
X179265Y108116D01*
X179295Y107951D01*
X179437Y107482D01*
X179353Y107325D01*
X179320Y107228D01*
X179281Y107132D01*
X179278Y107107D01*
X179273Y107092D01*
X179273Y107060D01*
X179263Y106965D01*
X179263Y106787D01*
X178916Y106441D01*
X178900Y106418D01*
X178878Y106400D01*
X178783Y106262D01*
X173898Y97146D01*
X173865Y97048D01*
X173827Y96953D01*
X173824Y96928D01*
X173819Y96913D01*
X173819Y96881D01*
X173808Y96786D01*
X173808Y96608D01*
X173462Y96262D01*
X173445Y96239D01*
X173424Y96221D01*
X173329Y96083D01*
X173097Y95651D01*
X172927Y95599D01*
X172920Y95596D01*
X172914Y95595D01*
X172861Y95567D01*
X172834Y95554D01*
X172740Y95513D01*
X172720Y95498D01*
X172706Y95491D01*
X172683Y95468D01*
X172609Y95409D01*
X158533Y81333D01*
X158522Y81317D01*
X158506Y81305D01*
X158450Y81217D01*
X158390Y81134D01*
X158384Y81115D01*
X158373Y81098D01*
X158348Y80997D01*
X158318Y80899D01*
X158318Y80879D01*
X158313Y80859D01*
X158321Y80756D01*
X158324Y80653D01*
X158331Y80634D01*
X158332Y80614D01*
X158373Y80519D01*
X158408Y80422D01*
X158421Y80406D01*
X158429Y80388D01*
X158533Y80257D01*
X158613Y80178D01*
X158613Y71822D01*
X157734Y70943D01*
X142266Y70943D01*
G37*
%LPD*%
%LPC*%
G36*
X142266Y58243D02*
X142266Y58243D01*
X141387Y59122D01*
X141387Y67478D01*
X142266Y68357D01*
X157734Y68357D01*
X158613Y67478D01*
X158613Y66491D01*
X158624Y66420D01*
X158626Y66348D01*
X158644Y66299D01*
X158652Y66248D01*
X158686Y66185D01*
X158711Y66117D01*
X158743Y66077D01*
X158768Y66031D01*
X158820Y65981D01*
X158864Y65925D01*
X158908Y65897D01*
X158946Y65861D01*
X159011Y65831D01*
X159071Y65792D01*
X159122Y65779D01*
X159169Y65758D01*
X159240Y65750D01*
X159310Y65732D01*
X159362Y65736D01*
X159413Y65730D01*
X159484Y65746D01*
X159555Y65751D01*
X159603Y65772D01*
X159654Y65783D01*
X159715Y65820D01*
X159781Y65848D01*
X159837Y65892D01*
X159865Y65909D01*
X159880Y65927D01*
X159912Y65952D01*
X183514Y89554D01*
X183567Y89628D01*
X183627Y89698D01*
X183639Y89728D01*
X183658Y89754D01*
X183685Y89841D01*
X183719Y89926D01*
X183723Y89967D01*
X183730Y89989D01*
X183729Y90021D01*
X183737Y90093D01*
X183737Y110229D01*
X183723Y110319D01*
X183715Y110410D01*
X183703Y110440D01*
X183698Y110472D01*
X183655Y110552D01*
X183619Y110636D01*
X183593Y110668D01*
X183582Y110689D01*
X183559Y110711D01*
X183514Y110767D01*
X181249Y113032D01*
X181249Y116968D01*
X184032Y119751D01*
X187968Y119751D01*
X190751Y116968D01*
X190751Y113032D01*
X188486Y110767D01*
X188433Y110693D01*
X188373Y110624D01*
X188361Y110594D01*
X188342Y110567D01*
X188315Y110480D01*
X188281Y110396D01*
X188277Y110355D01*
X188270Y110332D01*
X188271Y110300D01*
X188263Y110229D01*
X188263Y87903D01*
X161397Y61037D01*
X159374Y61037D01*
X159354Y61034D01*
X159335Y61036D01*
X159233Y61014D01*
X159131Y60998D01*
X159114Y60988D01*
X159094Y60984D01*
X159005Y60931D01*
X158914Y60882D01*
X158900Y60868D01*
X158883Y60858D01*
X158816Y60779D01*
X158744Y60704D01*
X158736Y60686D01*
X158723Y60671D01*
X158684Y60575D01*
X158641Y60481D01*
X158639Y60461D01*
X158631Y60443D01*
X158613Y60276D01*
X158613Y59122D01*
X157734Y58243D01*
X142266Y58243D01*
G37*
%LPD*%
%LPC*%
G36*
X236032Y162249D02*
X236032Y162249D01*
X233249Y165032D01*
X233249Y168968D01*
X236032Y171751D01*
X239235Y171751D01*
X239326Y171765D01*
X239416Y171773D01*
X239446Y171785D01*
X239478Y171790D01*
X239559Y171833D01*
X239643Y171869D01*
X239675Y171895D01*
X239696Y171906D01*
X239703Y171914D01*
X239704Y171914D01*
X239720Y171930D01*
X239774Y171974D01*
X261814Y194014D01*
X261867Y194088D01*
X261927Y194158D01*
X261939Y194188D01*
X261958Y194214D01*
X261985Y194301D01*
X262019Y194386D01*
X262023Y194427D01*
X262030Y194449D01*
X262029Y194481D01*
X262037Y194553D01*
X262037Y208126D01*
X262034Y208146D01*
X262036Y208165D01*
X262014Y208267D01*
X261998Y208369D01*
X261988Y208386D01*
X261984Y208406D01*
X261931Y208495D01*
X261882Y208586D01*
X261868Y208600D01*
X261858Y208617D01*
X261779Y208684D01*
X261704Y208756D01*
X261686Y208764D01*
X261671Y208777D01*
X261575Y208816D01*
X261481Y208859D01*
X261461Y208861D01*
X261443Y208869D01*
X261276Y208887D01*
X260122Y208887D01*
X259243Y209766D01*
X259243Y225234D01*
X260122Y226113D01*
X268478Y226113D01*
X269357Y225234D01*
X269357Y209766D01*
X268478Y208887D01*
X267324Y208887D01*
X267304Y208884D01*
X267285Y208886D01*
X267183Y208864D01*
X267081Y208848D01*
X267064Y208838D01*
X267044Y208834D01*
X266955Y208781D01*
X266864Y208732D01*
X266850Y208718D01*
X266833Y208708D01*
X266766Y208629D01*
X266694Y208554D01*
X266686Y208536D01*
X266673Y208521D01*
X266634Y208425D01*
X266591Y208331D01*
X266589Y208311D01*
X266581Y208293D01*
X266563Y208126D01*
X266563Y192363D01*
X242974Y168774D01*
X242921Y168700D01*
X242861Y168630D01*
X242849Y168600D01*
X242830Y168574D01*
X242803Y168487D01*
X242769Y168402D01*
X242765Y168361D01*
X242758Y168339D01*
X242759Y168307D01*
X242751Y168235D01*
X242751Y165032D01*
X239968Y162249D01*
X236032Y162249D01*
G37*
%LPD*%
%LPC*%
G36*
X267032Y177249D02*
X267032Y177249D01*
X264249Y180032D01*
X264249Y183968D01*
X267032Y186751D01*
X270968Y186751D01*
X273233Y184486D01*
X273307Y184433D01*
X273376Y184373D01*
X273406Y184361D01*
X273433Y184342D01*
X273520Y184315D01*
X273604Y184281D01*
X273645Y184277D01*
X273668Y184270D01*
X273700Y184271D01*
X273771Y184263D01*
X273976Y184263D01*
X273996Y184266D01*
X274015Y184264D01*
X274117Y184286D01*
X274219Y184302D01*
X274236Y184312D01*
X274256Y184316D01*
X274345Y184369D01*
X274436Y184418D01*
X274450Y184432D01*
X274467Y184442D01*
X274534Y184521D01*
X274606Y184596D01*
X274614Y184614D01*
X274627Y184629D01*
X274666Y184725D01*
X274709Y184819D01*
X274711Y184839D01*
X274719Y184857D01*
X274737Y185024D01*
X274737Y208126D01*
X274734Y208146D01*
X274736Y208165D01*
X274714Y208267D01*
X274698Y208369D01*
X274688Y208386D01*
X274684Y208406D01*
X274631Y208495D01*
X274582Y208586D01*
X274568Y208600D01*
X274558Y208617D01*
X274479Y208684D01*
X274404Y208756D01*
X274386Y208764D01*
X274371Y208777D01*
X274275Y208816D01*
X274181Y208859D01*
X274161Y208861D01*
X274143Y208869D01*
X273976Y208887D01*
X272822Y208887D01*
X271943Y209766D01*
X271943Y225234D01*
X272822Y226113D01*
X281178Y226113D01*
X282057Y225234D01*
X282057Y209766D01*
X281178Y208887D01*
X280024Y208887D01*
X280004Y208884D01*
X279985Y208886D01*
X279883Y208864D01*
X279781Y208848D01*
X279764Y208838D01*
X279744Y208834D01*
X279655Y208781D01*
X279564Y208732D01*
X279550Y208718D01*
X279533Y208708D01*
X279466Y208629D01*
X279394Y208554D01*
X279386Y208536D01*
X279373Y208521D01*
X279334Y208425D01*
X279291Y208331D01*
X279289Y208311D01*
X279281Y208293D01*
X279263Y208126D01*
X279263Y181063D01*
X277937Y179737D01*
X273771Y179737D01*
X273681Y179723D01*
X273590Y179715D01*
X273560Y179703D01*
X273528Y179698D01*
X273448Y179655D01*
X273364Y179619D01*
X273332Y179593D01*
X273311Y179582D01*
X273289Y179559D01*
X273233Y179514D01*
X270968Y177249D01*
X267032Y177249D01*
G37*
%LPD*%
%LPC*%
G36*
X288032Y182249D02*
X288032Y182249D01*
X285249Y185032D01*
X285249Y188968D01*
X287214Y190933D01*
X287267Y191007D01*
X287327Y191076D01*
X287339Y191106D01*
X287358Y191133D01*
X287385Y191220D01*
X287419Y191304D01*
X287423Y191345D01*
X287430Y191368D01*
X287429Y191400D01*
X287437Y191471D01*
X287437Y208126D01*
X287434Y208146D01*
X287436Y208165D01*
X287414Y208267D01*
X287398Y208369D01*
X287388Y208386D01*
X287384Y208406D01*
X287331Y208495D01*
X287282Y208586D01*
X287268Y208600D01*
X287258Y208617D01*
X287179Y208684D01*
X287104Y208756D01*
X287086Y208764D01*
X287071Y208777D01*
X286975Y208816D01*
X286881Y208859D01*
X286861Y208861D01*
X286843Y208869D01*
X286676Y208887D01*
X285522Y208887D01*
X284643Y209766D01*
X284643Y225234D01*
X285522Y226113D01*
X293878Y226113D01*
X294757Y225234D01*
X294757Y209766D01*
X293878Y208887D01*
X292724Y208887D01*
X292704Y208884D01*
X292685Y208886D01*
X292583Y208864D01*
X292481Y208848D01*
X292464Y208838D01*
X292444Y208834D01*
X292355Y208781D01*
X292264Y208732D01*
X292250Y208718D01*
X292233Y208708D01*
X292166Y208629D01*
X292094Y208554D01*
X292086Y208536D01*
X292073Y208521D01*
X292034Y208425D01*
X291991Y208331D01*
X291989Y208311D01*
X291981Y208293D01*
X291963Y208126D01*
X291963Y192071D01*
X291977Y191981D01*
X291985Y191890D01*
X291997Y191860D01*
X292002Y191828D01*
X292045Y191748D01*
X292081Y191664D01*
X292107Y191632D01*
X292118Y191611D01*
X292141Y191589D01*
X292186Y191533D01*
X294751Y188968D01*
X294751Y185032D01*
X291968Y182249D01*
X288032Y182249D01*
G37*
%LPD*%
%LPC*%
G36*
X318032Y199249D02*
X318032Y199249D01*
X315249Y202032D01*
X315249Y205968D01*
X316400Y207119D01*
X316453Y207193D01*
X316513Y207262D01*
X316525Y207292D01*
X316544Y207318D01*
X316571Y207405D01*
X316605Y207490D01*
X316609Y207531D01*
X316616Y207554D01*
X316615Y207586D01*
X316623Y207657D01*
X316623Y215977D01*
X321197Y215977D01*
X321197Y210054D01*
X321104Y209709D01*
X321092Y209589D01*
X321080Y209473D01*
X321080Y209468D01*
X321080Y209464D01*
X321106Y209349D01*
X321132Y209232D01*
X321134Y209229D01*
X321135Y209225D01*
X321196Y209124D01*
X321258Y209021D01*
X321261Y209018D01*
X321263Y209015D01*
X321354Y208939D01*
X321445Y208861D01*
X321449Y208860D01*
X321452Y208857D01*
X321562Y208814D01*
X321673Y208769D01*
X321678Y208769D01*
X321681Y208767D01*
X321695Y208767D01*
X321840Y208751D01*
X321982Y208751D01*
X322002Y208754D01*
X322021Y208752D01*
X322123Y208774D01*
X322225Y208790D01*
X322242Y208800D01*
X322262Y208804D01*
X322351Y208857D01*
X322442Y208906D01*
X322456Y208920D01*
X322473Y208930D01*
X322540Y209009D01*
X322612Y209084D01*
X322620Y209102D01*
X322633Y209117D01*
X322672Y209213D01*
X322715Y209307D01*
X322717Y209327D01*
X322725Y209345D01*
X322743Y209512D01*
X322743Y225234D01*
X323622Y226113D01*
X331978Y226113D01*
X332857Y225234D01*
X332857Y209766D01*
X331978Y208887D01*
X331332Y208887D01*
X331312Y208884D01*
X331293Y208886D01*
X331191Y208864D01*
X331089Y208848D01*
X331072Y208838D01*
X331052Y208834D01*
X330963Y208781D01*
X330872Y208732D01*
X330858Y208718D01*
X330841Y208708D01*
X330774Y208629D01*
X330702Y208554D01*
X330694Y208536D01*
X330681Y208521D01*
X330642Y208425D01*
X330599Y208331D01*
X330597Y208311D01*
X330589Y208293D01*
X330571Y208126D01*
X330571Y206352D01*
X325448Y201229D01*
X324263Y201229D01*
X324173Y201215D01*
X324082Y201207D01*
X324052Y201195D01*
X324020Y201190D01*
X323940Y201147D01*
X323856Y201111D01*
X323824Y201085D01*
X323803Y201074D01*
X323781Y201051D01*
X323725Y201006D01*
X321968Y199249D01*
X318032Y199249D01*
G37*
%LPD*%
%LPC*%
G36*
X301032Y188249D02*
X301032Y188249D01*
X298249Y191032D01*
X298249Y194968D01*
X299914Y196633D01*
X299967Y196707D01*
X300027Y196776D01*
X300039Y196806D01*
X300058Y196833D01*
X300085Y196920D01*
X300119Y197004D01*
X300123Y197045D01*
X300130Y197068D01*
X300129Y197100D01*
X300137Y197171D01*
X300137Y208126D01*
X300134Y208146D01*
X300136Y208165D01*
X300114Y208267D01*
X300098Y208369D01*
X300088Y208386D01*
X300084Y208406D01*
X300031Y208495D01*
X299982Y208586D01*
X299968Y208600D01*
X299958Y208617D01*
X299879Y208684D01*
X299804Y208756D01*
X299786Y208764D01*
X299771Y208777D01*
X299675Y208816D01*
X299581Y208859D01*
X299561Y208861D01*
X299543Y208869D01*
X299376Y208887D01*
X298222Y208887D01*
X297343Y209766D01*
X297343Y225234D01*
X298222Y226113D01*
X306578Y226113D01*
X307457Y225234D01*
X307457Y209766D01*
X306578Y208887D01*
X305424Y208887D01*
X305404Y208884D01*
X305385Y208886D01*
X305283Y208864D01*
X305181Y208848D01*
X305164Y208838D01*
X305144Y208834D01*
X305055Y208781D01*
X304964Y208732D01*
X304950Y208718D01*
X304933Y208708D01*
X304866Y208629D01*
X304794Y208554D01*
X304786Y208536D01*
X304773Y208521D01*
X304734Y208425D01*
X304691Y208331D01*
X304689Y208311D01*
X304681Y208293D01*
X304663Y208126D01*
X304663Y198371D01*
X304664Y198364D01*
X304664Y198360D01*
X304677Y198281D01*
X304685Y198190D01*
X304697Y198160D01*
X304702Y198128D01*
X304745Y198048D01*
X304781Y197964D01*
X304807Y197932D01*
X304818Y197911D01*
X304841Y197889D01*
X304886Y197833D01*
X307751Y194968D01*
X307751Y191032D01*
X304968Y188249D01*
X301032Y188249D01*
G37*
%LPD*%
%LPC*%
G36*
X68878Y62299D02*
X68878Y62299D01*
X67999Y63178D01*
X67999Y72022D01*
X68878Y72901D01*
X94122Y72901D01*
X95001Y72022D01*
X95001Y63178D01*
X94122Y62299D01*
X68878Y62299D01*
G37*
%LPD*%
%LPC*%
G36*
X285522Y3887D02*
X285522Y3887D01*
X284643Y4766D01*
X284643Y20234D01*
X285522Y21113D01*
X286671Y21113D01*
X286682Y21114D01*
X286692Y21113D01*
X286804Y21134D01*
X286914Y21152D01*
X286924Y21157D01*
X286934Y21159D01*
X287033Y21215D01*
X287132Y21268D01*
X287139Y21275D01*
X287148Y21281D01*
X287224Y21364D01*
X287301Y21446D01*
X287305Y21456D01*
X287313Y21463D01*
X287357Y21567D01*
X287405Y21669D01*
X287406Y21680D01*
X287410Y21689D01*
X287432Y21856D01*
X287437Y22045D01*
X287436Y22053D01*
X287437Y22064D01*
X287437Y22997D01*
X288113Y23641D01*
X288117Y23646D01*
X288126Y23653D01*
X288864Y24392D01*
X288882Y24399D01*
X288925Y24432D01*
X288950Y24445D01*
X288970Y24466D01*
X289015Y24500D01*
X294013Y29262D01*
X294074Y29342D01*
X294139Y29418D01*
X294148Y29440D01*
X294161Y29458D01*
X294193Y29553D01*
X294231Y29647D01*
X294234Y29675D01*
X294239Y29692D01*
X294239Y29725D01*
X294249Y29813D01*
X294249Y29968D01*
X297032Y32751D01*
X300968Y32751D01*
X303751Y29968D01*
X303751Y26032D01*
X300968Y23249D01*
X297032Y23249D01*
X296206Y24075D01*
X296198Y24081D01*
X296191Y24090D01*
X296098Y24153D01*
X296007Y24219D01*
X295996Y24222D01*
X295988Y24228D01*
X295879Y24258D01*
X295771Y24291D01*
X295761Y24291D01*
X295751Y24294D01*
X295638Y24288D01*
X295526Y24285D01*
X295516Y24281D01*
X295505Y24280D01*
X295400Y24239D01*
X295295Y24200D01*
X295286Y24194D01*
X295276Y24190D01*
X295143Y24088D01*
X293398Y22425D01*
X293349Y22361D01*
X293293Y22302D01*
X293275Y22263D01*
X293249Y22229D01*
X293224Y22152D01*
X293190Y22079D01*
X293185Y22036D01*
X293171Y21996D01*
X293171Y21915D01*
X293162Y21835D01*
X293172Y21793D01*
X293172Y21750D01*
X293197Y21673D01*
X293215Y21594D01*
X293237Y21557D01*
X293250Y21517D01*
X293299Y21452D01*
X293341Y21383D01*
X293373Y21355D01*
X293399Y21321D01*
X293466Y21276D01*
X293528Y21223D01*
X293568Y21207D01*
X293603Y21183D01*
X293681Y21161D01*
X293756Y21131D01*
X293812Y21125D01*
X293840Y21117D01*
X293868Y21119D01*
X293872Y21118D01*
X294757Y20234D01*
X294757Y4766D01*
X293878Y3887D01*
X285522Y3887D01*
G37*
%LPD*%
%LPC*%
G36*
X11209Y124089D02*
X11209Y124089D01*
X5889Y129409D01*
X5889Y136931D01*
X11209Y142251D01*
X18731Y142251D01*
X24051Y136931D01*
X24051Y129409D01*
X18731Y124089D01*
X11209Y124089D01*
G37*
%LPD*%
%LPC*%
G36*
X11209Y73289D02*
X11209Y73289D01*
X5889Y78609D01*
X5889Y86131D01*
X11209Y91451D01*
X18731Y91451D01*
X24051Y86131D01*
X24051Y78609D01*
X18731Y73289D01*
X11209Y73289D01*
G37*
%LPD*%
%LPC*%
G36*
X36609Y73289D02*
X36609Y73289D01*
X31289Y78609D01*
X31289Y86131D01*
X36609Y91451D01*
X44131Y91451D01*
X49451Y86131D01*
X49451Y78609D01*
X44131Y73289D01*
X36609Y73289D01*
G37*
%LPD*%
%LPC*%
G36*
X11209Y47889D02*
X11209Y47889D01*
X5889Y53209D01*
X5889Y60731D01*
X11209Y66051D01*
X18731Y66051D01*
X24051Y60731D01*
X24051Y53209D01*
X18731Y47889D01*
X11209Y47889D01*
G37*
%LPD*%
%LPC*%
G36*
X36609Y98689D02*
X36609Y98689D01*
X31289Y104009D01*
X31289Y111531D01*
X36609Y116851D01*
X44131Y116851D01*
X49451Y111531D01*
X49451Y104009D01*
X44131Y98689D01*
X36609Y98689D01*
G37*
%LPD*%
%LPC*%
G36*
X11209Y149489D02*
X11209Y149489D01*
X5889Y154809D01*
X5889Y162331D01*
X11209Y167651D01*
X18731Y167651D01*
X24051Y162331D01*
X24051Y154809D01*
X18731Y149489D01*
X11209Y149489D01*
G37*
%LPD*%
%LPC*%
G36*
X36609Y124089D02*
X36609Y124089D01*
X31289Y129409D01*
X31289Y136931D01*
X36609Y142251D01*
X44131Y142251D01*
X49451Y136931D01*
X49451Y129409D01*
X44131Y124089D01*
X36609Y124089D01*
G37*
%LPD*%
%LPC*%
G36*
X247422Y3887D02*
X247422Y3887D01*
X246543Y4766D01*
X246543Y20234D01*
X247422Y21113D01*
X250597Y21113D01*
X250688Y21127D01*
X250778Y21135D01*
X250808Y21147D01*
X250840Y21152D01*
X250921Y21195D01*
X251005Y21231D01*
X251037Y21257D01*
X251058Y21268D01*
X251080Y21291D01*
X251136Y21336D01*
X256026Y26226D01*
X256079Y26300D01*
X256139Y26370D01*
X256151Y26400D01*
X256170Y26426D01*
X256197Y26513D01*
X256231Y26598D01*
X256235Y26639D01*
X256242Y26661D01*
X256241Y26693D01*
X256249Y26765D01*
X256249Y29968D01*
X259032Y32751D01*
X262968Y32751D01*
X265751Y29968D01*
X265751Y26032D01*
X262968Y23249D01*
X259765Y23249D01*
X259674Y23235D01*
X259584Y23227D01*
X259554Y23215D01*
X259522Y23210D01*
X259441Y23167D01*
X259357Y23131D01*
X259325Y23105D01*
X259304Y23094D01*
X259282Y23071D01*
X259226Y23026D01*
X256880Y20680D01*
X256827Y20606D01*
X256767Y20536D01*
X256755Y20506D01*
X256736Y20480D01*
X256709Y20393D01*
X256675Y20308D01*
X256671Y20267D01*
X256664Y20245D01*
X256665Y20213D01*
X256657Y20141D01*
X256657Y4766D01*
X255778Y3887D01*
X247422Y3887D01*
G37*
%LPD*%
%LPC*%
G36*
X196622Y3887D02*
X196622Y3887D01*
X195743Y4766D01*
X195743Y20234D01*
X196622Y21113D01*
X204978Y21113D01*
X205857Y20234D01*
X205857Y4766D01*
X204978Y3887D01*
X196622Y3887D01*
G37*
%LPD*%
%LPC*%
G36*
X142266Y122943D02*
X142266Y122943D01*
X141387Y123822D01*
X141387Y132178D01*
X142266Y133057D01*
X157734Y133057D01*
X158613Y132178D01*
X158613Y123822D01*
X157734Y122943D01*
X142266Y122943D01*
G37*
%LPD*%
%LPC*%
G36*
X142266Y161043D02*
X142266Y161043D01*
X141387Y161922D01*
X141387Y170278D01*
X142266Y171157D01*
X157734Y171157D01*
X158613Y170278D01*
X158613Y161922D01*
X157734Y161043D01*
X142266Y161043D01*
G37*
%LPD*%
%LPC*%
G36*
X272822Y3887D02*
X272822Y3887D01*
X271943Y4766D01*
X271943Y20234D01*
X272822Y21113D01*
X281178Y21113D01*
X282057Y20234D01*
X282057Y4766D01*
X281178Y3887D01*
X272822Y3887D01*
G37*
%LPD*%
%LPC*%
G36*
X298222Y3887D02*
X298222Y3887D01*
X297343Y4766D01*
X297343Y20234D01*
X298222Y21113D01*
X306578Y21113D01*
X307457Y20234D01*
X307457Y4766D01*
X306578Y3887D01*
X298222Y3887D01*
G37*
%LPD*%
%LPC*%
G36*
X310922Y3887D02*
X310922Y3887D01*
X310043Y4766D01*
X310043Y20234D01*
X310922Y21113D01*
X319278Y21113D01*
X320157Y20234D01*
X320157Y4766D01*
X319278Y3887D01*
X310922Y3887D01*
G37*
%LPD*%
%LPC*%
G36*
X142266Y174343D02*
X142266Y174343D01*
X141387Y175222D01*
X141387Y183578D01*
X142266Y184457D01*
X157734Y184457D01*
X158613Y183578D01*
X158613Y175222D01*
X157734Y174343D01*
X142266Y174343D01*
G37*
%LPD*%
%LPC*%
G36*
X209322Y3887D02*
X209322Y3887D01*
X208443Y4766D01*
X208443Y20234D01*
X209322Y21113D01*
X217678Y21113D01*
X218557Y20234D01*
X218557Y4766D01*
X217678Y3887D01*
X209322Y3887D01*
G37*
%LPD*%
%LPC*%
G36*
X323622Y3887D02*
X323622Y3887D01*
X322743Y4766D01*
X322743Y20234D01*
X323622Y21113D01*
X331978Y21113D01*
X332857Y20234D01*
X332857Y4766D01*
X331978Y3887D01*
X323622Y3887D01*
G37*
%LPD*%
%LPC*%
G36*
X142266Y148343D02*
X142266Y148343D01*
X141387Y149222D01*
X141387Y157578D01*
X142266Y158457D01*
X157734Y158457D01*
X158613Y157578D01*
X158613Y149222D01*
X157734Y148343D01*
X142266Y148343D01*
G37*
%LPD*%
%LPC*%
G36*
X171222Y3887D02*
X171222Y3887D01*
X170343Y4766D01*
X170343Y20234D01*
X171222Y21113D01*
X179578Y21113D01*
X180457Y20234D01*
X180457Y4766D01*
X179578Y3887D01*
X171222Y3887D01*
G37*
%LPD*%
%LPC*%
G36*
X171222Y208887D02*
X171222Y208887D01*
X170343Y209766D01*
X170343Y225234D01*
X171222Y226113D01*
X179578Y226113D01*
X180457Y225234D01*
X180457Y209766D01*
X179578Y208887D01*
X171222Y208887D01*
G37*
%LPD*%
%LPC*%
G36*
X142266Y135643D02*
X142266Y135643D01*
X141387Y136522D01*
X141387Y144878D01*
X142266Y145757D01*
X157734Y145757D01*
X158613Y144878D01*
X158613Y136522D01*
X157734Y135643D01*
X142266Y135643D01*
G37*
%LPD*%
%LPC*%
G36*
X222022Y208887D02*
X222022Y208887D01*
X221143Y209766D01*
X221143Y225234D01*
X222022Y226113D01*
X230378Y226113D01*
X231257Y225234D01*
X231257Y209766D01*
X230378Y208887D01*
X222022Y208887D01*
G37*
%LPD*%
%LPC*%
G36*
X247422Y208887D02*
X247422Y208887D01*
X246543Y209766D01*
X246543Y225234D01*
X247422Y226113D01*
X255778Y226113D01*
X256657Y225234D01*
X256657Y209766D01*
X255778Y208887D01*
X247422Y208887D01*
G37*
%LPD*%
%LPC*%
G36*
X183922Y3887D02*
X183922Y3887D01*
X183043Y4766D01*
X183043Y20234D01*
X183922Y21113D01*
X192278Y21113D01*
X193157Y20234D01*
X193157Y4766D01*
X192278Y3887D01*
X183922Y3887D01*
G37*
%LPD*%
%LPC*%
G36*
X209322Y208887D02*
X209322Y208887D01*
X208443Y209766D01*
X208443Y225234D01*
X209322Y226113D01*
X217678Y226113D01*
X218557Y225234D01*
X218557Y209766D01*
X217678Y208887D01*
X209322Y208887D01*
G37*
%LPD*%
%LPC*%
G36*
X196622Y208887D02*
X196622Y208887D01*
X195743Y209766D01*
X195743Y225234D01*
X196622Y226113D01*
X204978Y226113D01*
X205857Y225234D01*
X205857Y209766D01*
X204978Y208887D01*
X196622Y208887D01*
G37*
%LPD*%
%LPC*%
G36*
X142266Y110243D02*
X142266Y110243D01*
X141387Y111122D01*
X141387Y119478D01*
X142266Y120357D01*
X157734Y120357D01*
X158613Y119478D01*
X158613Y111122D01*
X157734Y110243D01*
X142266Y110243D01*
G37*
%LPD*%
%LPC*%
G36*
X183922Y208887D02*
X183922Y208887D01*
X183043Y209766D01*
X183043Y225234D01*
X183922Y226113D01*
X192278Y226113D01*
X193157Y225234D01*
X193157Y209766D01*
X192278Y208887D01*
X183922Y208887D01*
G37*
%LPD*%
%LPC*%
G36*
X234722Y208887D02*
X234722Y208887D01*
X233843Y209766D01*
X233843Y225234D01*
X234722Y226113D01*
X243078Y226113D01*
X243957Y225234D01*
X243957Y209766D01*
X243078Y208887D01*
X234722Y208887D01*
G37*
%LPD*%
%LPC*%
G36*
X260122Y3887D02*
X260122Y3887D01*
X259243Y4766D01*
X259243Y20234D01*
X260122Y21113D01*
X268478Y21113D01*
X269357Y20234D01*
X269357Y4766D01*
X268478Y3887D01*
X260122Y3887D01*
G37*
%LPD*%
%LPC*%
G36*
X234722Y3887D02*
X234722Y3887D01*
X233843Y4766D01*
X233843Y20234D01*
X234722Y21113D01*
X243078Y21113D01*
X243957Y20234D01*
X243957Y4766D01*
X243078Y3887D01*
X234722Y3887D01*
G37*
%LPD*%
%LPC*%
G36*
X222022Y3887D02*
X222022Y3887D01*
X221143Y4766D01*
X221143Y20234D01*
X222022Y21113D01*
X230378Y21113D01*
X231257Y20234D01*
X231257Y4766D01*
X230378Y3887D01*
X222022Y3887D01*
G37*
%LPD*%
%LPC*%
G36*
X142266Y97543D02*
X142266Y97543D01*
X141387Y98422D01*
X141387Y106778D01*
X142266Y107657D01*
X157734Y107657D01*
X158613Y106778D01*
X158613Y98422D01*
X157734Y97543D01*
X142266Y97543D01*
G37*
%LPD*%
%LPC*%
G36*
X66959Y94523D02*
X66959Y94523D01*
X66959Y97134D01*
X67132Y97781D01*
X67467Y98360D01*
X67919Y98812D01*
X67930Y98828D01*
X67946Y98840D01*
X68002Y98927D01*
X68062Y99011D01*
X68068Y99030D01*
X68079Y99047D01*
X68104Y99148D01*
X68134Y99246D01*
X68134Y99266D01*
X68139Y99286D01*
X68131Y99389D01*
X68128Y99492D01*
X68121Y99511D01*
X68120Y99531D01*
X68079Y99626D01*
X68044Y99723D01*
X68031Y99739D01*
X68023Y99757D01*
X67919Y99888D01*
X67467Y100340D01*
X67132Y100919D01*
X66959Y101566D01*
X66959Y104177D01*
X79977Y104177D01*
X79977Y94523D01*
X66959Y94523D01*
G37*
%LPD*%
%LPC*%
G36*
X86773Y170523D02*
X86773Y170523D01*
X86773Y180541D01*
X96334Y180541D01*
X96981Y180368D01*
X97560Y180033D01*
X98033Y179560D01*
X98368Y178981D01*
X98541Y178334D01*
X98541Y170523D01*
X86773Y170523D01*
G37*
%LPD*%
%LPC*%
G36*
X71959Y170523D02*
X71959Y170523D01*
X71959Y178334D01*
X72132Y178981D01*
X72467Y179560D01*
X72940Y180033D01*
X73519Y180368D01*
X74166Y180541D01*
X83727Y180541D01*
X83727Y170523D01*
X71959Y170523D01*
G37*
%LPD*%
%LPC*%
G36*
X74166Y157459D02*
X74166Y157459D01*
X73519Y157632D01*
X72940Y157967D01*
X72467Y158440D01*
X72132Y159019D01*
X71959Y159666D01*
X71959Y167477D01*
X83727Y167477D01*
X83727Y157459D01*
X74166Y157459D01*
G37*
%LPD*%
%LPC*%
G36*
X16493Y109293D02*
X16493Y109293D01*
X16493Y117891D01*
X19162Y117891D01*
X25091Y111962D01*
X25091Y109293D01*
X16493Y109293D01*
G37*
%LPD*%
%LPC*%
G36*
X41893Y160093D02*
X41893Y160093D01*
X41893Y168691D01*
X44562Y168691D01*
X50491Y162762D01*
X50491Y160093D01*
X41893Y160093D01*
G37*
%LPD*%
%LPC*%
G36*
X30249Y160093D02*
X30249Y160093D01*
X30249Y162762D01*
X36178Y168691D01*
X38847Y168691D01*
X38847Y160093D01*
X30249Y160093D01*
G37*
%LPD*%
%LPC*%
G36*
X4849Y109293D02*
X4849Y109293D01*
X4849Y111962D01*
X10778Y117891D01*
X13447Y117891D01*
X13447Y109293D01*
X4849Y109293D01*
G37*
%LPD*%
%LPC*%
G36*
X41893Y148449D02*
X41893Y148449D01*
X41893Y157047D01*
X50491Y157047D01*
X50491Y154378D01*
X44562Y148449D01*
X41893Y148449D01*
G37*
%LPD*%
%LPC*%
G36*
X16493Y97649D02*
X16493Y97649D01*
X16493Y106247D01*
X25091Y106247D01*
X25091Y103578D01*
X19162Y97649D01*
X16493Y97649D01*
G37*
%LPD*%
%LPC*%
G36*
X10778Y97649D02*
X10778Y97649D01*
X4849Y103578D01*
X4849Y106247D01*
X13447Y106247D01*
X13447Y97649D01*
X10778Y97649D01*
G37*
%LPD*%
%LPC*%
G36*
X36178Y148449D02*
X36178Y148449D01*
X30249Y154378D01*
X30249Y157047D01*
X38847Y157047D01*
X38847Y148449D01*
X36178Y148449D01*
G37*
%LPD*%
%LPC*%
G36*
X84773Y32773D02*
X84773Y32773D01*
X84773Y39041D01*
X89334Y39041D01*
X89981Y38868D01*
X90560Y38533D01*
X91033Y38060D01*
X91368Y37481D01*
X91541Y36834D01*
X91541Y32773D01*
X84773Y32773D01*
G37*
%LPD*%
%LPC*%
G36*
X118273Y32773D02*
X118273Y32773D01*
X118273Y39041D01*
X122834Y39041D01*
X123481Y38868D01*
X124060Y38533D01*
X124533Y38060D01*
X124868Y37481D01*
X125041Y36834D01*
X125041Y32773D01*
X118273Y32773D01*
G37*
%LPD*%
%LPC*%
G36*
X74959Y32773D02*
X74959Y32773D01*
X74959Y36834D01*
X75132Y37481D01*
X75467Y38060D01*
X75940Y38533D01*
X76519Y38868D01*
X77166Y39041D01*
X81727Y39041D01*
X81727Y32773D01*
X74959Y32773D01*
G37*
%LPD*%
%LPC*%
G36*
X108459Y32773D02*
X108459Y32773D01*
X108459Y36834D01*
X108632Y37481D01*
X108967Y38060D01*
X109440Y38533D01*
X110019Y38868D01*
X110666Y39041D01*
X115227Y39041D01*
X115227Y32773D01*
X108459Y32773D01*
G37*
%LPD*%
%LPC*%
G36*
X118273Y190959D02*
X118273Y190959D01*
X118273Y197227D01*
X125041Y197227D01*
X125041Y193165D01*
X124868Y192519D01*
X124533Y191940D01*
X124060Y191467D01*
X123481Y191132D01*
X122834Y190959D01*
X118273Y190959D01*
G37*
%LPD*%
%LPC*%
G36*
X84773Y190959D02*
X84773Y190959D01*
X84773Y197227D01*
X91541Y197227D01*
X91541Y193165D01*
X91368Y192519D01*
X91033Y191940D01*
X90560Y191467D01*
X89981Y191132D01*
X89334Y190959D01*
X84773Y190959D01*
G37*
%LPD*%
%LPC*%
G36*
X110666Y190959D02*
X110666Y190959D01*
X110019Y191132D01*
X109440Y191467D01*
X108967Y191940D01*
X108632Y192519D01*
X108459Y193166D01*
X108459Y197227D01*
X115227Y197227D01*
X115227Y190959D01*
X110666Y190959D01*
G37*
%LPD*%
%LPC*%
G36*
X77166Y190959D02*
X77166Y190959D01*
X76519Y191132D01*
X75940Y191467D01*
X75467Y191940D01*
X75132Y192519D01*
X74959Y193166D01*
X74959Y197227D01*
X81727Y197227D01*
X81727Y190959D01*
X77166Y190959D01*
G37*
%LPD*%
%LPC*%
G36*
X311210Y207847D02*
X311210Y207847D01*
X310563Y208020D01*
X309984Y208355D01*
X309511Y208828D01*
X309176Y209407D01*
X309003Y210054D01*
X309003Y215977D01*
X313577Y215977D01*
X313577Y207847D01*
X311210Y207847D01*
G37*
%LPD*%
%LPC*%
G36*
X40369Y158569D02*
X40369Y158569D01*
X40369Y158571D01*
X40371Y158571D01*
X40371Y158569D01*
X40369Y158569D01*
G37*
%LPD*%
%LPC*%
G36*
X14969Y107769D02*
X14969Y107769D01*
X14969Y107771D01*
X14971Y107771D01*
X14971Y107769D01*
X14969Y107769D01*
G37*
%LPD*%
%LPC*%
G36*
X85249Y168999D02*
X85249Y168999D01*
X85249Y169001D01*
X85251Y169001D01*
X85251Y168999D01*
X85249Y168999D01*
G37*
%LPD*%
D10*
X114750Y169000D03*
X85250Y169000D03*
D11*
X14970Y56970D03*
X40370Y56970D03*
X14970Y82370D03*
X40370Y82370D03*
X14970Y107770D03*
X40370Y107770D03*
X14970Y133170D03*
X40370Y133170D03*
X14970Y158570D03*
X40370Y158570D03*
D12*
X150000Y76000D03*
X150000Y63300D03*
D13*
X188100Y12500D03*
X200800Y12500D03*
X213500Y12500D03*
X226200Y12500D03*
X238900Y12500D03*
X251600Y12500D03*
X264300Y12500D03*
X277000Y12500D03*
X289700Y12500D03*
X302400Y12500D03*
X200800Y217500D03*
X213500Y217500D03*
X226200Y217500D03*
X238900Y217500D03*
X251600Y217500D03*
X264300Y217500D03*
X277000Y217500D03*
X289700Y217500D03*
X302400Y217500D03*
X327800Y217500D03*
X327800Y12500D03*
X315100Y217500D03*
D12*
X150000Y89900D03*
X150000Y102600D03*
X150000Y115300D03*
X150000Y128000D03*
X150000Y140700D03*
X150000Y153400D03*
X150000Y166100D03*
D13*
X175400Y217500D03*
X188100Y217500D03*
D12*
X150000Y179400D03*
D13*
X175400Y12500D03*
X315100Y12500D03*
D14*
X109500Y143000D03*
X90500Y143000D03*
D15*
X81500Y118400D03*
X120500Y118400D03*
X81500Y105700D03*
X120500Y105700D03*
X81500Y93000D03*
X120500Y93000D03*
X81500Y80300D03*
X120500Y80300D03*
X81500Y67600D03*
X120500Y67600D03*
D16*
X83250Y213250D03*
X83250Y198750D03*
X116750Y198750D03*
X116750Y213250D03*
X116750Y16750D03*
X116750Y31250D03*
X83250Y31250D03*
X83250Y16750D03*
D17*
X90500Y127400D02*
X90500Y143000D01*
X327800Y207500D02*
X327800Y217500D01*
X327800Y207500D02*
X324300Y204000D01*
X320000Y204000D01*
D18*
X320000Y204000D03*
D17*
X56000Y72600D02*
X40370Y56970D01*
X65400Y118400D02*
X81500Y118400D01*
X56000Y109000D02*
X56000Y72600D01*
X56000Y109000D02*
X65400Y118400D01*
X81500Y118400D02*
X90500Y127400D01*
X90500Y143000D02*
X90500Y147000D01*
X112500Y169000D02*
X114750Y169000D01*
X112500Y169000D02*
X90500Y147000D01*
X122750Y183000D02*
X123000Y183000D01*
X122750Y183000D02*
X114750Y175000D01*
X114750Y169000D01*
D18*
X123000Y183000D03*
D19*
X177000Y125000D02*
X177000Y107724D01*
X171545Y97545D01*
X150000Y76000D01*
D18*
X177000Y125000D03*
X186000Y115000D03*
D19*
X186000Y88840D01*
X160460Y63300D01*
X150000Y63300D01*
X120500Y67600D02*
X107400Y67600D01*
X102000Y73000D01*
D18*
X102000Y73000D03*
X299000Y28000D03*
D19*
X295969Y28000D01*
X289700Y22028D01*
X289700Y12500D01*
D18*
X134000Y137000D03*
D19*
X134000Y208000D01*
X128750Y213250D02*
X116750Y213250D01*
X128750Y213250D02*
X134000Y208000D01*
X116750Y213250D02*
X83250Y213250D01*
X109500Y143000D02*
X128000Y143000D01*
X134000Y137000D01*
X120500Y118400D02*
X107400Y118400D01*
X102000Y113000D01*
D18*
X102000Y113000D03*
X303000Y193000D03*
D19*
X302400Y193600D02*
X302400Y217500D01*
X302400Y193600D02*
X303000Y193000D01*
X120500Y105700D02*
X120800Y103000D01*
X102000Y103000D01*
D18*
X102000Y103000D03*
X290000Y187000D03*
D19*
X289700Y187000D02*
X289700Y217500D01*
X289700Y187000D02*
X290000Y187000D01*
X120500Y93000D02*
X102000Y93000D01*
D18*
X102000Y93000D03*
X269000Y182000D03*
D19*
X277000Y182000D02*
X277000Y217500D01*
X277000Y182000D02*
X269000Y182000D01*
X120500Y80300D02*
X104700Y80300D01*
X102000Y83000D01*
D18*
X102000Y83000D03*
X238000Y167000D03*
D19*
X264300Y193300D01*
X264300Y217500D01*
X116750Y16750D02*
X83250Y16750D01*
X251600Y18600D02*
X251600Y12500D01*
X251600Y18600D02*
X261000Y28000D01*
D18*
X261000Y28000D03*
X102000Y61000D03*
D19*
X104750Y16750D02*
X116750Y16750D01*
X104750Y16750D02*
X102000Y19500D01*
X102000Y61000D01*
M02*
