G04 EAGLE Gerber RS-274X export*
G75*
%MOMM*%
%FSLAX34Y34*%
%LPD*%
%INSilkscreen Top*%
%IPPOS*%
%AMOC8*
5,1,8,0,0,1.08239X$1,22.5*%
G01*
%ADD10C,0.076200*%
%ADD11C,0.127000*%
%ADD12C,0.100000*%
%ADD13C,0.200000*%
%ADD14C,0.200000*%


D10*
X25381Y50691D02*
X27992Y52779D01*
X27992Y43381D01*
X30602Y43381D02*
X25381Y43381D01*
X127518Y165317D02*
X129155Y165317D01*
X127518Y165317D02*
X127440Y165319D01*
X127362Y165324D01*
X127285Y165334D01*
X127208Y165347D01*
X127132Y165363D01*
X127057Y165383D01*
X126983Y165407D01*
X126910Y165434D01*
X126838Y165465D01*
X126768Y165499D01*
X126700Y165536D01*
X126633Y165577D01*
X126568Y165621D01*
X126506Y165667D01*
X126446Y165717D01*
X126388Y165769D01*
X126333Y165824D01*
X126281Y165882D01*
X126231Y165942D01*
X126185Y166004D01*
X126141Y166069D01*
X126100Y166136D01*
X126063Y166204D01*
X126029Y166274D01*
X125998Y166346D01*
X125971Y166419D01*
X125947Y166493D01*
X125927Y166568D01*
X125911Y166644D01*
X125898Y166721D01*
X125888Y166798D01*
X125883Y166876D01*
X125881Y166954D01*
X125881Y171046D01*
X125883Y171126D01*
X125889Y171206D01*
X125899Y171286D01*
X125912Y171365D01*
X125930Y171444D01*
X125951Y171521D01*
X125977Y171597D01*
X126006Y171672D01*
X126038Y171746D01*
X126074Y171818D01*
X126114Y171888D01*
X126157Y171955D01*
X126203Y172021D01*
X126253Y172084D01*
X126305Y172145D01*
X126360Y172204D01*
X126419Y172259D01*
X126479Y172311D01*
X126543Y172361D01*
X126609Y172407D01*
X126676Y172450D01*
X126746Y172490D01*
X126818Y172526D01*
X126892Y172558D01*
X126966Y172587D01*
X127043Y172613D01*
X127120Y172634D01*
X127199Y172652D01*
X127278Y172665D01*
X127358Y172675D01*
X127438Y172681D01*
X127518Y172683D01*
X129155Y172683D01*
X132000Y171046D02*
X134046Y172683D01*
X134046Y165317D01*
X132000Y165317D02*
X136092Y165317D01*
D11*
X150000Y12500D02*
X470000Y12500D01*
X470000Y217500D01*
X150000Y217500D01*
X150000Y12500D01*
X180000Y62500D02*
X180000Y162500D01*
X180000Y62500D02*
X280000Y62500D01*
X280000Y162500D01*
X180000Y162500D01*
X310000Y142500D02*
X310000Y102500D01*
X350000Y102500D01*
X350000Y142500D01*
X310000Y142500D01*
X310000Y52500D02*
X310000Y32500D01*
X340000Y32500D01*
X340000Y52500D01*
X310000Y52500D01*
X386000Y192500D02*
X386000Y212500D01*
X386000Y192500D02*
X414000Y192500D01*
X414000Y212500D01*
X386000Y212500D01*
X400000Y152500D02*
X460000Y152500D01*
X460000Y132500D01*
X420000Y132500D01*
X420000Y112500D01*
X460000Y112500D01*
X460000Y92500D01*
X420000Y92500D01*
X420000Y72500D01*
X460000Y72500D01*
X460000Y52500D01*
X420000Y52500D01*
X460000Y152500D02*
X460000Y182500D01*
X400000Y182500D01*
X392000Y202500D02*
X392002Y202696D01*
X392010Y202893D01*
X392022Y203089D01*
X392039Y203284D01*
X392060Y203479D01*
X392087Y203674D01*
X392118Y203868D01*
X392154Y204061D01*
X392194Y204253D01*
X392240Y204444D01*
X392290Y204634D01*
X392344Y204822D01*
X392404Y205009D01*
X392468Y205195D01*
X392536Y205379D01*
X392609Y205561D01*
X392686Y205742D01*
X392768Y205920D01*
X392854Y206097D01*
X392945Y206271D01*
X393039Y206443D01*
X393138Y206613D01*
X393241Y206780D01*
X393348Y206945D01*
X393459Y207106D01*
X393574Y207266D01*
X393693Y207422D01*
X393816Y207575D01*
X393942Y207725D01*
X394072Y207872D01*
X394206Y208016D01*
X394343Y208157D01*
X394484Y208294D01*
X394628Y208428D01*
X394775Y208558D01*
X394925Y208684D01*
X395078Y208807D01*
X395234Y208926D01*
X395394Y209041D01*
X395555Y209152D01*
X395720Y209259D01*
X395887Y209362D01*
X396057Y209461D01*
X396229Y209555D01*
X396403Y209646D01*
X396580Y209732D01*
X396758Y209814D01*
X396939Y209891D01*
X397121Y209964D01*
X397305Y210032D01*
X397491Y210096D01*
X397678Y210156D01*
X397866Y210210D01*
X398056Y210260D01*
X398247Y210306D01*
X398439Y210346D01*
X398632Y210382D01*
X398826Y210413D01*
X399021Y210440D01*
X399216Y210461D01*
X399411Y210478D01*
X399607Y210490D01*
X399804Y210498D01*
X400000Y210500D01*
X400196Y210498D01*
X400393Y210490D01*
X400589Y210478D01*
X400784Y210461D01*
X400979Y210440D01*
X401174Y210413D01*
X401368Y210382D01*
X401561Y210346D01*
X401753Y210306D01*
X401944Y210260D01*
X402134Y210210D01*
X402322Y210156D01*
X402509Y210096D01*
X402695Y210032D01*
X402879Y209964D01*
X403061Y209891D01*
X403242Y209814D01*
X403420Y209732D01*
X403597Y209646D01*
X403771Y209555D01*
X403943Y209461D01*
X404113Y209362D01*
X404280Y209259D01*
X404445Y209152D01*
X404606Y209041D01*
X404766Y208926D01*
X404922Y208807D01*
X405075Y208684D01*
X405225Y208558D01*
X405372Y208428D01*
X405516Y208294D01*
X405657Y208157D01*
X405794Y208016D01*
X405928Y207872D01*
X406058Y207725D01*
X406184Y207575D01*
X406307Y207422D01*
X406426Y207266D01*
X406541Y207106D01*
X406652Y206945D01*
X406759Y206780D01*
X406862Y206613D01*
X406961Y206443D01*
X407055Y206271D01*
X407146Y206097D01*
X407232Y205920D01*
X407314Y205742D01*
X407391Y205561D01*
X407464Y205379D01*
X407532Y205195D01*
X407596Y205009D01*
X407656Y204822D01*
X407710Y204634D01*
X407760Y204444D01*
X407806Y204253D01*
X407846Y204061D01*
X407882Y203868D01*
X407913Y203674D01*
X407940Y203479D01*
X407961Y203284D01*
X407978Y203089D01*
X407990Y202893D01*
X407998Y202696D01*
X408000Y202500D01*
X407998Y202304D01*
X407990Y202107D01*
X407978Y201911D01*
X407961Y201716D01*
X407940Y201521D01*
X407913Y201326D01*
X407882Y201132D01*
X407846Y200939D01*
X407806Y200747D01*
X407760Y200556D01*
X407710Y200366D01*
X407656Y200178D01*
X407596Y199991D01*
X407532Y199805D01*
X407464Y199621D01*
X407391Y199439D01*
X407314Y199258D01*
X407232Y199080D01*
X407146Y198903D01*
X407055Y198729D01*
X406961Y198557D01*
X406862Y198387D01*
X406759Y198220D01*
X406652Y198055D01*
X406541Y197894D01*
X406426Y197734D01*
X406307Y197578D01*
X406184Y197425D01*
X406058Y197275D01*
X405928Y197128D01*
X405794Y196984D01*
X405657Y196843D01*
X405516Y196706D01*
X405372Y196572D01*
X405225Y196442D01*
X405075Y196316D01*
X404922Y196193D01*
X404766Y196074D01*
X404606Y195959D01*
X404445Y195848D01*
X404280Y195741D01*
X404113Y195638D01*
X403943Y195539D01*
X403771Y195445D01*
X403597Y195354D01*
X403420Y195268D01*
X403242Y195186D01*
X403061Y195109D01*
X402879Y195036D01*
X402695Y194968D01*
X402509Y194904D01*
X402322Y194844D01*
X402134Y194790D01*
X401944Y194740D01*
X401753Y194694D01*
X401561Y194654D01*
X401368Y194618D01*
X401174Y194587D01*
X400979Y194560D01*
X400784Y194539D01*
X400589Y194522D01*
X400393Y194510D01*
X400196Y194502D01*
X400000Y194500D01*
X399804Y194502D01*
X399607Y194510D01*
X399411Y194522D01*
X399216Y194539D01*
X399021Y194560D01*
X398826Y194587D01*
X398632Y194618D01*
X398439Y194654D01*
X398247Y194694D01*
X398056Y194740D01*
X397866Y194790D01*
X397678Y194844D01*
X397491Y194904D01*
X397305Y194968D01*
X397121Y195036D01*
X396939Y195109D01*
X396758Y195186D01*
X396580Y195268D01*
X396403Y195354D01*
X396229Y195445D01*
X396057Y195539D01*
X395887Y195638D01*
X395720Y195741D01*
X395555Y195848D01*
X395394Y195959D01*
X395234Y196074D01*
X395078Y196193D01*
X394925Y196316D01*
X394775Y196442D01*
X394628Y196572D01*
X394484Y196706D01*
X394343Y196843D01*
X394206Y196984D01*
X394072Y197128D01*
X393942Y197275D01*
X393816Y197425D01*
X393693Y197578D01*
X393574Y197734D01*
X393459Y197894D01*
X393348Y198055D01*
X393241Y198220D01*
X393138Y198387D01*
X393039Y198557D01*
X392945Y198729D01*
X392854Y198903D01*
X392768Y199080D01*
X392686Y199258D01*
X392609Y199439D01*
X392536Y199621D01*
X392468Y199805D01*
X392404Y199991D01*
X392344Y200178D01*
X392290Y200366D01*
X392240Y200556D01*
X392194Y200747D01*
X392154Y200939D01*
X392118Y201132D01*
X392087Y201326D01*
X392060Y201521D01*
X392039Y201716D01*
X392022Y201911D01*
X392010Y202107D01*
X392002Y202304D01*
X392000Y202500D01*
X399000Y202500D02*
X399002Y202563D01*
X399008Y202625D01*
X399018Y202687D01*
X399031Y202749D01*
X399049Y202809D01*
X399070Y202868D01*
X399095Y202926D01*
X399124Y202982D01*
X399156Y203036D01*
X399191Y203088D01*
X399229Y203137D01*
X399271Y203185D01*
X399315Y203229D01*
X399363Y203271D01*
X399412Y203309D01*
X399464Y203344D01*
X399518Y203376D01*
X399574Y203405D01*
X399632Y203430D01*
X399691Y203451D01*
X399751Y203469D01*
X399813Y203482D01*
X399875Y203492D01*
X399937Y203498D01*
X400000Y203500D01*
X400063Y203498D01*
X400125Y203492D01*
X400187Y203482D01*
X400249Y203469D01*
X400309Y203451D01*
X400368Y203430D01*
X400426Y203405D01*
X400482Y203376D01*
X400536Y203344D01*
X400588Y203309D01*
X400637Y203271D01*
X400685Y203229D01*
X400729Y203185D01*
X400771Y203137D01*
X400809Y203088D01*
X400844Y203036D01*
X400876Y202982D01*
X400905Y202926D01*
X400930Y202868D01*
X400951Y202809D01*
X400969Y202749D01*
X400982Y202687D01*
X400992Y202625D01*
X400998Y202563D01*
X401000Y202500D01*
X400998Y202437D01*
X400992Y202375D01*
X400982Y202313D01*
X400969Y202251D01*
X400951Y202191D01*
X400930Y202132D01*
X400905Y202074D01*
X400876Y202018D01*
X400844Y201964D01*
X400809Y201912D01*
X400771Y201863D01*
X400729Y201815D01*
X400685Y201771D01*
X400637Y201729D01*
X400588Y201691D01*
X400536Y201656D01*
X400482Y201624D01*
X400426Y201595D01*
X400368Y201570D01*
X400309Y201549D01*
X400249Y201531D01*
X400187Y201518D01*
X400125Y201508D01*
X400063Y201502D01*
X400000Y201500D01*
X399937Y201502D01*
X399875Y201508D01*
X399813Y201518D01*
X399751Y201531D01*
X399691Y201549D01*
X399632Y201570D01*
X399574Y201595D01*
X399518Y201624D01*
X399464Y201656D01*
X399412Y201691D01*
X399363Y201729D01*
X399315Y201771D01*
X399271Y201815D01*
X399229Y201863D01*
X399191Y201912D01*
X399156Y201964D01*
X399124Y202018D01*
X399095Y202074D01*
X399070Y202132D01*
X399049Y202191D01*
X399031Y202251D01*
X399018Y202313D01*
X399008Y202375D01*
X399002Y202437D01*
X399000Y202500D01*
D10*
X120365Y146683D02*
X120365Y139317D01*
X120365Y146683D02*
X122411Y146683D01*
X122500Y146681D01*
X122589Y146675D01*
X122678Y146665D01*
X122766Y146652D01*
X122854Y146635D01*
X122941Y146613D01*
X123026Y146588D01*
X123111Y146560D01*
X123194Y146527D01*
X123276Y146491D01*
X123356Y146452D01*
X123434Y146409D01*
X123510Y146363D01*
X123585Y146313D01*
X123657Y146260D01*
X123726Y146204D01*
X123793Y146145D01*
X123858Y146084D01*
X123919Y146019D01*
X123978Y145952D01*
X124034Y145883D01*
X124087Y145811D01*
X124137Y145736D01*
X124183Y145660D01*
X124226Y145582D01*
X124265Y145502D01*
X124301Y145420D01*
X124334Y145337D01*
X124362Y145252D01*
X124387Y145167D01*
X124409Y145080D01*
X124426Y144992D01*
X124439Y144904D01*
X124449Y144815D01*
X124455Y144726D01*
X124457Y144637D01*
X124455Y144548D01*
X124449Y144459D01*
X124439Y144370D01*
X124426Y144282D01*
X124409Y144194D01*
X124387Y144107D01*
X124362Y144022D01*
X124334Y143937D01*
X124301Y143854D01*
X124265Y143772D01*
X124226Y143692D01*
X124183Y143614D01*
X124137Y143538D01*
X124087Y143463D01*
X124034Y143391D01*
X123978Y143322D01*
X123919Y143255D01*
X123858Y143190D01*
X123793Y143129D01*
X123726Y143070D01*
X123657Y143014D01*
X123585Y142961D01*
X123510Y142911D01*
X123434Y142865D01*
X123356Y142822D01*
X123276Y142783D01*
X123194Y142747D01*
X123111Y142714D01*
X123026Y142686D01*
X122941Y142661D01*
X122854Y142639D01*
X122766Y142622D01*
X122678Y142609D01*
X122589Y142599D01*
X122500Y142593D01*
X122411Y142591D01*
X120365Y142591D01*
X122820Y142591D02*
X124457Y139317D01*
X127629Y145046D02*
X129675Y146683D01*
X129675Y139317D01*
X127629Y139317D02*
X131721Y139317D01*
D12*
X106000Y61250D02*
X96000Y61250D01*
X96000Y124750D02*
X106000Y124750D01*
D13*
X79000Y128000D03*
D14*
X78998Y127938D01*
X78992Y127877D01*
X78983Y127816D01*
X78970Y127756D01*
X78953Y127697D01*
X78932Y127639D01*
X78908Y127582D01*
X78881Y127527D01*
X78850Y127474D01*
X78816Y127422D01*
X78779Y127373D01*
X78739Y127326D01*
X78696Y127282D01*
X78651Y127241D01*
X78603Y127202D01*
X78552Y127166D01*
X78500Y127134D01*
X78446Y127105D01*
X78390Y127079D01*
X78332Y127057D01*
X78274Y127038D01*
X78214Y127023D01*
X78153Y127012D01*
X78092Y127004D01*
X78031Y127000D01*
X77969Y127000D01*
X77908Y127004D01*
X77847Y127012D01*
X77786Y127023D01*
X77726Y127038D01*
X77668Y127057D01*
X77610Y127079D01*
X77554Y127105D01*
X77500Y127134D01*
X77448Y127166D01*
X77397Y127202D01*
X77349Y127241D01*
X77304Y127282D01*
X77261Y127326D01*
X77221Y127373D01*
X77184Y127422D01*
X77150Y127474D01*
X77119Y127527D01*
X77092Y127582D01*
X77068Y127639D01*
X77047Y127697D01*
X77030Y127756D01*
X77017Y127816D01*
X77008Y127877D01*
X77002Y127938D01*
X77000Y128000D01*
D13*
X77000Y128000D03*
D14*
X77002Y128062D01*
X77008Y128123D01*
X77017Y128184D01*
X77030Y128244D01*
X77047Y128303D01*
X77068Y128361D01*
X77092Y128418D01*
X77119Y128473D01*
X77150Y128526D01*
X77184Y128578D01*
X77221Y128627D01*
X77261Y128674D01*
X77304Y128718D01*
X77349Y128759D01*
X77397Y128798D01*
X77448Y128834D01*
X77500Y128866D01*
X77554Y128895D01*
X77610Y128921D01*
X77668Y128943D01*
X77726Y128962D01*
X77786Y128977D01*
X77847Y128988D01*
X77908Y128996D01*
X77969Y129000D01*
X78031Y129000D01*
X78092Y128996D01*
X78153Y128988D01*
X78214Y128977D01*
X78274Y128962D01*
X78332Y128943D01*
X78390Y128921D01*
X78446Y128895D01*
X78500Y128866D01*
X78552Y128834D01*
X78603Y128798D01*
X78651Y128759D01*
X78696Y128718D01*
X78739Y128674D01*
X78779Y128627D01*
X78816Y128578D01*
X78850Y128526D01*
X78881Y128473D01*
X78908Y128418D01*
X78932Y128361D01*
X78953Y128303D01*
X78970Y128244D01*
X78983Y128184D01*
X78992Y128123D01*
X78998Y128062D01*
X79000Y128000D01*
D10*
X91395Y56683D02*
X91395Y50954D01*
X91393Y50876D01*
X91388Y50798D01*
X91378Y50721D01*
X91365Y50644D01*
X91349Y50568D01*
X91329Y50493D01*
X91305Y50419D01*
X91278Y50346D01*
X91247Y50274D01*
X91213Y50204D01*
X91176Y50136D01*
X91135Y50069D01*
X91091Y50004D01*
X91045Y49942D01*
X90995Y49882D01*
X90943Y49824D01*
X90888Y49769D01*
X90830Y49717D01*
X90770Y49667D01*
X90708Y49621D01*
X90643Y49577D01*
X90577Y49536D01*
X90508Y49499D01*
X90438Y49465D01*
X90366Y49434D01*
X90293Y49407D01*
X90219Y49383D01*
X90144Y49363D01*
X90068Y49347D01*
X89991Y49334D01*
X89914Y49324D01*
X89836Y49319D01*
X89758Y49317D01*
X88940Y49317D01*
X96388Y49317D02*
X96388Y56683D01*
X94342Y56683D02*
X98434Y56683D01*
X103215Y56683D02*
X100760Y49317D01*
X105671Y49317D02*
X103215Y56683D01*
X101374Y51159D02*
X105057Y51159D01*
X111593Y53409D02*
X112820Y53409D01*
X112820Y49317D01*
X110365Y49317D01*
X110287Y49319D01*
X110209Y49324D01*
X110132Y49334D01*
X110055Y49347D01*
X109979Y49363D01*
X109904Y49383D01*
X109830Y49407D01*
X109757Y49434D01*
X109685Y49465D01*
X109615Y49499D01*
X109547Y49536D01*
X109480Y49577D01*
X109415Y49621D01*
X109353Y49667D01*
X109293Y49717D01*
X109235Y49769D01*
X109180Y49824D01*
X109128Y49882D01*
X109078Y49942D01*
X109032Y50004D01*
X108988Y50069D01*
X108947Y50136D01*
X108910Y50204D01*
X108876Y50274D01*
X108845Y50346D01*
X108818Y50419D01*
X108794Y50493D01*
X108774Y50568D01*
X108758Y50644D01*
X108745Y50721D01*
X108735Y50798D01*
X108730Y50876D01*
X108728Y50954D01*
X108728Y55046D01*
X108730Y55126D01*
X108736Y55206D01*
X108746Y55286D01*
X108759Y55365D01*
X108777Y55444D01*
X108798Y55521D01*
X108824Y55597D01*
X108853Y55672D01*
X108885Y55746D01*
X108921Y55818D01*
X108961Y55888D01*
X109004Y55955D01*
X109050Y56021D01*
X109100Y56084D01*
X109152Y56145D01*
X109207Y56204D01*
X109266Y56259D01*
X109326Y56311D01*
X109390Y56361D01*
X109456Y56407D01*
X109523Y56450D01*
X109593Y56490D01*
X109665Y56526D01*
X109739Y56558D01*
X109813Y56587D01*
X109890Y56613D01*
X109967Y56634D01*
X110046Y56652D01*
X110125Y56665D01*
X110205Y56675D01*
X110285Y56681D01*
X110365Y56683D01*
X112820Y56683D01*
D14*
X108000Y221500D02*
X92000Y221500D01*
X92000Y190500D02*
X108000Y190500D01*
X93000Y217000D02*
X93002Y217063D01*
X93008Y217125D01*
X93018Y217187D01*
X93031Y217249D01*
X93049Y217309D01*
X93070Y217368D01*
X93095Y217426D01*
X93124Y217482D01*
X93156Y217536D01*
X93191Y217588D01*
X93229Y217637D01*
X93271Y217685D01*
X93315Y217729D01*
X93363Y217771D01*
X93412Y217809D01*
X93464Y217844D01*
X93518Y217876D01*
X93574Y217905D01*
X93632Y217930D01*
X93691Y217951D01*
X93751Y217969D01*
X93813Y217982D01*
X93875Y217992D01*
X93937Y217998D01*
X94000Y218000D01*
X94063Y217998D01*
X94125Y217992D01*
X94187Y217982D01*
X94249Y217969D01*
X94309Y217951D01*
X94368Y217930D01*
X94426Y217905D01*
X94482Y217876D01*
X94536Y217844D01*
X94588Y217809D01*
X94637Y217771D01*
X94685Y217729D01*
X94729Y217685D01*
X94771Y217637D01*
X94809Y217588D01*
X94844Y217536D01*
X94876Y217482D01*
X94905Y217426D01*
X94930Y217368D01*
X94951Y217309D01*
X94969Y217249D01*
X94982Y217187D01*
X94992Y217125D01*
X94998Y217063D01*
X95000Y217000D01*
X94998Y216937D01*
X94992Y216875D01*
X94982Y216813D01*
X94969Y216751D01*
X94951Y216691D01*
X94930Y216632D01*
X94905Y216574D01*
X94876Y216518D01*
X94844Y216464D01*
X94809Y216412D01*
X94771Y216363D01*
X94729Y216315D01*
X94685Y216271D01*
X94637Y216229D01*
X94588Y216191D01*
X94536Y216156D01*
X94482Y216124D01*
X94426Y216095D01*
X94368Y216070D01*
X94309Y216049D01*
X94249Y216031D01*
X94187Y216018D01*
X94125Y216008D01*
X94063Y216002D01*
X94000Y216000D01*
X93937Y216002D01*
X93875Y216008D01*
X93813Y216018D01*
X93751Y216031D01*
X93691Y216049D01*
X93632Y216070D01*
X93574Y216095D01*
X93518Y216124D01*
X93464Y216156D01*
X93412Y216191D01*
X93363Y216229D01*
X93315Y216271D01*
X93271Y216315D01*
X93229Y216363D01*
X93191Y216412D01*
X93156Y216464D01*
X93124Y216518D01*
X93095Y216574D01*
X93070Y216632D01*
X93049Y216691D01*
X93031Y216751D01*
X93018Y216813D01*
X93008Y216875D01*
X93002Y216937D01*
X93000Y217000D01*
D10*
X70683Y190812D02*
X63317Y190812D01*
X63317Y192858D01*
X63319Y192947D01*
X63325Y193036D01*
X63335Y193125D01*
X63348Y193213D01*
X63365Y193301D01*
X63387Y193388D01*
X63412Y193473D01*
X63440Y193558D01*
X63473Y193641D01*
X63509Y193723D01*
X63548Y193803D01*
X63591Y193881D01*
X63637Y193957D01*
X63687Y194032D01*
X63740Y194104D01*
X63796Y194173D01*
X63855Y194240D01*
X63916Y194305D01*
X63981Y194366D01*
X64048Y194425D01*
X64117Y194481D01*
X64189Y194534D01*
X64264Y194584D01*
X64340Y194630D01*
X64418Y194673D01*
X64498Y194712D01*
X64580Y194748D01*
X64663Y194781D01*
X64748Y194809D01*
X64833Y194834D01*
X64920Y194856D01*
X65008Y194873D01*
X65096Y194886D01*
X65185Y194896D01*
X65274Y194902D01*
X65363Y194904D01*
X65452Y194902D01*
X65541Y194896D01*
X65630Y194886D01*
X65718Y194873D01*
X65806Y194856D01*
X65893Y194834D01*
X65978Y194809D01*
X66063Y194781D01*
X66146Y194748D01*
X66228Y194712D01*
X66308Y194673D01*
X66386Y194630D01*
X66462Y194584D01*
X66537Y194534D01*
X66609Y194481D01*
X66678Y194425D01*
X66745Y194366D01*
X66810Y194305D01*
X66871Y194240D01*
X66930Y194173D01*
X66986Y194104D01*
X67039Y194032D01*
X67089Y193957D01*
X67135Y193881D01*
X67178Y193803D01*
X67217Y193723D01*
X67253Y193641D01*
X67286Y193558D01*
X67314Y193473D01*
X67339Y193388D01*
X67361Y193301D01*
X67378Y193213D01*
X67391Y193125D01*
X67401Y193036D01*
X67407Y192947D01*
X67409Y192858D01*
X67409Y190812D01*
X67409Y193267D02*
X70683Y194904D01*
X70683Y198336D02*
X70683Y201609D01*
X70683Y198336D02*
X63317Y198336D01*
X63317Y201609D01*
X66591Y200791D02*
X66591Y198336D01*
X70683Y206627D02*
X70681Y206705D01*
X70676Y206783D01*
X70666Y206860D01*
X70653Y206937D01*
X70637Y207013D01*
X70617Y207088D01*
X70593Y207162D01*
X70566Y207235D01*
X70535Y207307D01*
X70501Y207377D01*
X70464Y207446D01*
X70423Y207512D01*
X70379Y207577D01*
X70333Y207639D01*
X70283Y207699D01*
X70231Y207757D01*
X70176Y207812D01*
X70118Y207864D01*
X70058Y207914D01*
X69996Y207960D01*
X69931Y208004D01*
X69865Y208045D01*
X69796Y208082D01*
X69726Y208116D01*
X69654Y208147D01*
X69581Y208174D01*
X69507Y208198D01*
X69432Y208218D01*
X69356Y208234D01*
X69279Y208247D01*
X69202Y208257D01*
X69124Y208262D01*
X69046Y208264D01*
X70683Y206627D02*
X70681Y206513D01*
X70676Y206400D01*
X70666Y206286D01*
X70653Y206173D01*
X70636Y206061D01*
X70616Y205949D01*
X70592Y205838D01*
X70564Y205727D01*
X70533Y205618D01*
X70498Y205510D01*
X70459Y205403D01*
X70417Y205297D01*
X70372Y205193D01*
X70323Y205090D01*
X70270Y204989D01*
X70215Y204890D01*
X70156Y204792D01*
X70094Y204697D01*
X70029Y204604D01*
X69961Y204512D01*
X69890Y204424D01*
X69816Y204337D01*
X69739Y204253D01*
X69660Y204172D01*
X64954Y204377D02*
X64876Y204379D01*
X64798Y204384D01*
X64721Y204394D01*
X64644Y204407D01*
X64568Y204423D01*
X64493Y204443D01*
X64419Y204467D01*
X64346Y204494D01*
X64274Y204525D01*
X64204Y204559D01*
X64136Y204596D01*
X64069Y204637D01*
X64004Y204681D01*
X63942Y204727D01*
X63882Y204777D01*
X63824Y204829D01*
X63769Y204884D01*
X63717Y204942D01*
X63667Y205002D01*
X63621Y205064D01*
X63577Y205129D01*
X63536Y205196D01*
X63499Y205264D01*
X63465Y205334D01*
X63434Y205406D01*
X63407Y205479D01*
X63383Y205553D01*
X63363Y205628D01*
X63347Y205704D01*
X63334Y205781D01*
X63324Y205858D01*
X63319Y205936D01*
X63317Y206014D01*
X63319Y206124D01*
X63325Y206233D01*
X63335Y206343D01*
X63348Y206451D01*
X63366Y206560D01*
X63387Y206667D01*
X63413Y206774D01*
X63442Y206880D01*
X63474Y206985D01*
X63511Y207088D01*
X63551Y207190D01*
X63595Y207291D01*
X63643Y207390D01*
X63693Y207487D01*
X63748Y207582D01*
X63806Y207675D01*
X63867Y207766D01*
X63931Y207855D01*
X66386Y205195D02*
X66344Y205129D01*
X66300Y205064D01*
X66252Y205002D01*
X66202Y204942D01*
X66149Y204884D01*
X66093Y204829D01*
X66035Y204776D01*
X65974Y204727D01*
X65911Y204680D01*
X65846Y204636D01*
X65779Y204596D01*
X65710Y204559D01*
X65639Y204525D01*
X65567Y204494D01*
X65493Y204467D01*
X65418Y204443D01*
X65343Y204423D01*
X65266Y204407D01*
X65189Y204394D01*
X65111Y204384D01*
X65032Y204379D01*
X64954Y204377D01*
X67613Y207446D02*
X67655Y207513D01*
X67699Y207578D01*
X67747Y207640D01*
X67797Y207700D01*
X67850Y207758D01*
X67906Y207813D01*
X67965Y207865D01*
X68025Y207915D01*
X68089Y207962D01*
X68154Y208005D01*
X68221Y208046D01*
X68290Y208083D01*
X68361Y208117D01*
X68433Y208148D01*
X68507Y208175D01*
X68581Y208199D01*
X68657Y208219D01*
X68734Y208235D01*
X68811Y208248D01*
X68889Y208258D01*
X68968Y208263D01*
X69046Y208265D01*
X67614Y207446D02*
X66386Y205195D01*
X70683Y211503D02*
X70683Y214777D01*
X70683Y211503D02*
X63317Y211503D01*
X63317Y214777D01*
X66591Y213958D02*
X66591Y211503D01*
X63317Y219142D02*
X70683Y219142D01*
X63317Y217096D02*
X63317Y221188D01*
D14*
X92000Y8500D02*
X108000Y8500D01*
X108000Y39500D02*
X92000Y39500D01*
X105000Y13000D02*
X105002Y13063D01*
X105008Y13125D01*
X105018Y13187D01*
X105031Y13249D01*
X105049Y13309D01*
X105070Y13368D01*
X105095Y13426D01*
X105124Y13482D01*
X105156Y13536D01*
X105191Y13588D01*
X105229Y13637D01*
X105271Y13685D01*
X105315Y13729D01*
X105363Y13771D01*
X105412Y13809D01*
X105464Y13844D01*
X105518Y13876D01*
X105574Y13905D01*
X105632Y13930D01*
X105691Y13951D01*
X105751Y13969D01*
X105813Y13982D01*
X105875Y13992D01*
X105937Y13998D01*
X106000Y14000D01*
X106063Y13998D01*
X106125Y13992D01*
X106187Y13982D01*
X106249Y13969D01*
X106309Y13951D01*
X106368Y13930D01*
X106426Y13905D01*
X106482Y13876D01*
X106536Y13844D01*
X106588Y13809D01*
X106637Y13771D01*
X106685Y13729D01*
X106729Y13685D01*
X106771Y13637D01*
X106809Y13588D01*
X106844Y13536D01*
X106876Y13482D01*
X106905Y13426D01*
X106930Y13368D01*
X106951Y13309D01*
X106969Y13249D01*
X106982Y13187D01*
X106992Y13125D01*
X106998Y13063D01*
X107000Y13000D01*
X106998Y12937D01*
X106992Y12875D01*
X106982Y12813D01*
X106969Y12751D01*
X106951Y12691D01*
X106930Y12632D01*
X106905Y12574D01*
X106876Y12518D01*
X106844Y12464D01*
X106809Y12412D01*
X106771Y12363D01*
X106729Y12315D01*
X106685Y12271D01*
X106637Y12229D01*
X106588Y12191D01*
X106536Y12156D01*
X106482Y12124D01*
X106426Y12095D01*
X106368Y12070D01*
X106309Y12049D01*
X106249Y12031D01*
X106187Y12018D01*
X106125Y12008D01*
X106063Y12002D01*
X106000Y12000D01*
X105937Y12002D01*
X105875Y12008D01*
X105813Y12018D01*
X105751Y12031D01*
X105691Y12049D01*
X105632Y12070D01*
X105574Y12095D01*
X105518Y12124D01*
X105464Y12156D01*
X105412Y12191D01*
X105363Y12229D01*
X105315Y12271D01*
X105271Y12315D01*
X105229Y12363D01*
X105191Y12412D01*
X105156Y12464D01*
X105124Y12518D01*
X105095Y12574D01*
X105070Y12632D01*
X105049Y12691D01*
X105031Y12751D01*
X105018Y12813D01*
X105008Y12875D01*
X105002Y12937D01*
X105000Y13000D01*
D10*
X70683Y8551D02*
X63317Y8551D01*
X63317Y11824D01*
X66591Y11824D02*
X66591Y8551D01*
X63317Y14890D02*
X70683Y14890D01*
X70683Y18164D01*
X70683Y20561D02*
X63317Y23017D01*
X70683Y25472D01*
X68842Y24858D02*
X68842Y21175D01*
X70683Y30497D02*
X70681Y30575D01*
X70676Y30653D01*
X70666Y30730D01*
X70653Y30807D01*
X70637Y30883D01*
X70617Y30958D01*
X70593Y31032D01*
X70566Y31105D01*
X70535Y31177D01*
X70501Y31247D01*
X70464Y31316D01*
X70423Y31382D01*
X70379Y31447D01*
X70333Y31509D01*
X70283Y31569D01*
X70231Y31627D01*
X70176Y31682D01*
X70118Y31734D01*
X70058Y31784D01*
X69996Y31830D01*
X69931Y31874D01*
X69865Y31915D01*
X69796Y31952D01*
X69726Y31986D01*
X69654Y32017D01*
X69581Y32044D01*
X69507Y32068D01*
X69432Y32088D01*
X69356Y32104D01*
X69279Y32117D01*
X69202Y32127D01*
X69124Y32132D01*
X69046Y32134D01*
X70683Y30497D02*
X70681Y30383D01*
X70676Y30270D01*
X70666Y30156D01*
X70653Y30043D01*
X70636Y29931D01*
X70616Y29819D01*
X70592Y29708D01*
X70564Y29597D01*
X70533Y29488D01*
X70498Y29380D01*
X70459Y29273D01*
X70417Y29167D01*
X70372Y29063D01*
X70323Y28960D01*
X70270Y28859D01*
X70215Y28760D01*
X70156Y28662D01*
X70094Y28567D01*
X70029Y28474D01*
X69961Y28382D01*
X69890Y28294D01*
X69816Y28207D01*
X69739Y28123D01*
X69660Y28042D01*
X64954Y28247D02*
X64876Y28249D01*
X64798Y28254D01*
X64721Y28264D01*
X64644Y28277D01*
X64568Y28293D01*
X64493Y28313D01*
X64419Y28337D01*
X64346Y28364D01*
X64274Y28395D01*
X64204Y28429D01*
X64136Y28466D01*
X64069Y28507D01*
X64004Y28551D01*
X63942Y28597D01*
X63882Y28647D01*
X63824Y28699D01*
X63769Y28754D01*
X63717Y28812D01*
X63667Y28872D01*
X63621Y28934D01*
X63577Y28999D01*
X63536Y29066D01*
X63499Y29134D01*
X63465Y29204D01*
X63434Y29276D01*
X63407Y29349D01*
X63383Y29423D01*
X63363Y29498D01*
X63347Y29574D01*
X63334Y29651D01*
X63324Y29728D01*
X63319Y29806D01*
X63317Y29884D01*
X63319Y29994D01*
X63325Y30103D01*
X63335Y30213D01*
X63348Y30321D01*
X63366Y30430D01*
X63387Y30537D01*
X63413Y30644D01*
X63442Y30750D01*
X63474Y30855D01*
X63511Y30958D01*
X63551Y31060D01*
X63595Y31161D01*
X63643Y31260D01*
X63693Y31357D01*
X63748Y31452D01*
X63806Y31545D01*
X63867Y31636D01*
X63931Y31725D01*
X66386Y29065D02*
X66344Y28999D01*
X66300Y28934D01*
X66252Y28872D01*
X66202Y28812D01*
X66149Y28754D01*
X66093Y28699D01*
X66035Y28646D01*
X65974Y28597D01*
X65911Y28550D01*
X65846Y28506D01*
X65779Y28466D01*
X65710Y28429D01*
X65639Y28395D01*
X65567Y28364D01*
X65493Y28337D01*
X65418Y28313D01*
X65343Y28293D01*
X65266Y28277D01*
X65189Y28264D01*
X65111Y28254D01*
X65032Y28249D01*
X64954Y28247D01*
X67613Y31316D02*
X67655Y31383D01*
X67699Y31448D01*
X67747Y31510D01*
X67797Y31570D01*
X67850Y31628D01*
X67906Y31683D01*
X67965Y31735D01*
X68025Y31785D01*
X68089Y31832D01*
X68154Y31875D01*
X68221Y31916D01*
X68290Y31953D01*
X68361Y31987D01*
X68433Y32018D01*
X68507Y32045D01*
X68581Y32069D01*
X68657Y32089D01*
X68734Y32105D01*
X68811Y32118D01*
X68889Y32128D01*
X68968Y32133D01*
X69046Y32135D01*
X67614Y31316D02*
X66386Y29065D01*
X63317Y35357D02*
X70683Y35357D01*
X66591Y35357D02*
X66591Y39449D01*
X63317Y39449D02*
X70683Y39449D01*
M02*
