G04 EAGLE Gerber RS-274X export*
G75*
%MOMM*%
%FSLAX34Y34*%
%LPD*%
%INBottom Copper*%
%IPPOS*%
%AMOC8*
5,1,8,0,0,1.08239X$1,22.5*%
G01*
%ADD10P,1.640903X8X112.500000*%
%ADD11P,0.703554X8X22.500000*%
%ADD12C,0.254000*%
%ADD13C,0.152400*%


D10*
X14970Y56970D03*
X40370Y56970D03*
X14970Y82370D03*
X40370Y82370D03*
X14970Y107770D03*
X40370Y107770D03*
X14970Y133170D03*
X40370Y133170D03*
X14970Y158570D03*
X40370Y158570D03*
D11*
X320000Y204000D03*
X123000Y183000D03*
D12*
X139000Y199000D01*
X260000Y204000D02*
X320000Y204000D01*
X260000Y204000D02*
X255000Y199000D01*
X139000Y199000D01*
D11*
X177000Y125000D03*
D13*
X179000Y127000D01*
X179000Y130000D01*
X165524Y143476D01*
X25276Y143476D02*
X14970Y133170D01*
X25276Y143476D02*
X165524Y143476D01*
D11*
X186000Y115000D03*
D13*
X186000Y130000D01*
X168000Y148000D01*
X25540Y148000D02*
X14970Y158570D01*
X25540Y148000D02*
X168000Y148000D01*
D11*
X102000Y73000D03*
D13*
X115000Y86000D01*
D11*
X299000Y28000D03*
D13*
X299000Y66000D01*
X279000Y86000D01*
X115000Y86000D01*
X102000Y73000D02*
X94000Y81000D01*
X94000Y133000D01*
X100000Y139000D01*
X132000Y139000D01*
X134000Y137000D01*
D11*
X134000Y137000D03*
X102000Y113000D03*
D13*
X219000Y193000D02*
X303000Y193000D01*
D11*
X303000Y193000D03*
D13*
X110000Y105000D02*
X102000Y113000D01*
X110000Y105000D02*
X208000Y105000D01*
X219000Y116000D01*
X219000Y193000D01*
D11*
X102000Y103000D03*
X290000Y187000D03*
D13*
X105000Y100000D02*
X102000Y103000D01*
X105000Y100000D02*
X209000Y100000D01*
X290000Y187000D02*
X290000Y188000D01*
X223000Y188000D01*
X223000Y114000D02*
X209000Y100000D01*
X223000Y114000D02*
X223000Y188000D01*
D11*
X102000Y93000D03*
D13*
X105000Y96000D01*
X211000Y96000D01*
D11*
X269000Y182000D03*
D13*
X227000Y182000D01*
X227000Y112000D02*
X211000Y96000D01*
X227000Y112000D02*
X227000Y182000D01*
D11*
X102000Y83000D03*
D13*
X231000Y167000D02*
X238000Y167000D01*
X231000Y167000D02*
X231000Y110000D01*
D11*
X238000Y167000D03*
D13*
X110000Y91000D02*
X102000Y83000D01*
X110000Y91000D02*
X212000Y91000D01*
X231000Y110000D01*
D11*
X261000Y28000D03*
D13*
X261000Y59000D01*
X239000Y81000D01*
X121000Y81000D01*
X102000Y62000D02*
X102000Y61000D01*
X102000Y62000D02*
X121000Y81000D01*
D11*
X102000Y61000D03*
M02*
